<svg xmlns="http://www.w3.org/2000/svg" xmlns:svg="http://www.w3.org/2000/svg" id="svg4682" width="24" height="24" version="1.1"><metadata id="metadata4687"/><g id="layer1" transform="translate(0,-1028.3622)"><path style="font-style:normal;font-variant:normal;font-weight:400;font-stretch:normal;font-size:6px;line-height:125%;font-family:Roboto;-inkscape-font-specification:Roboto;letter-spacing:0;word-spacing:0;fill:#000;fill-opacity:1;stroke:none" id="path7638" d="m 17,1030.3622 0,3 -10,0 -2,0 0,6 2,0 0,-4 10,0 0,3 4,-4 -4,-4 z m -4.25586,7.5 -2.49414,0.75 0.006,0.75 1,0 0,4 1.49414,0 -0.006,-5.5 z m 4.25586,3.5 0,4 -10,0 0,-3 -4,4 4,4 0,-3 10,0 2,0 0,-6 -2,0 z"/></g></svg>