<svg xmlns="http://www.w3.org/2000/svg" xmlns:svg="http://www.w3.org/2000/svg" id="svg4682" width="24" height="24" version="1.1"><metadata id="metadata4687"/><g id="layer1" transform="translate(0,-1028.3622)"><path style="color:#000;display:inline;overflow:visible;visibility:visible;fill:#757575;fill-opacity:1;fill-rule:nonzero;stroke:none;stroke-width:.5;marker:none;enable-background:accumulate" id="path5029-3" d="m 11.99995,1032.3622 c -4.41828,0 -8,3.5817 -8,8 l -2,0 3,3 3,-3 -2,0 c 0,-3.3137 2.68629,-6 6,-6 3.31371,0 6,2.6863 6,6 0,3.3137 -2.68629,6 -6,6 -1.64891,0 -3.13422,-0.7046 -4.21875,-1.7812 l -0.0312,0 -1.40625,1.4375 c 1.44771,1.4477 3.44711,2.3437 5.65625,2.3437 4.41828,0 8,-3.5817 8,-8 0,-4.4183 -3.58172,-8 -8,-8 z m -1,3.5 0,4.7813 0,0.125 0.0937,0.094 2.6875,2.6562 1.40625,-1.4062 -2.1875,-2.1563 0,-4.0937 -2,0 z"/></g></svg>