<svg xmlns="http://www.w3.org/2000/svg" xmlns:svg="http://www.w3.org/2000/svg" id="svg3428" width="20" height="20" version="1.1"><metadata id="metadata3433"/><g id="layer1" transform="translate(0,-1032.3622)"><path style="fill:#f80;fill-opacity:.8509804;stroke:none" id="path6365" d="m 295,507.36218 c 0,27.61424 -22.38576,50 -50,50 -27.61424,0 -50,-22.38576 -50,-50 0,-27.61423 22.38576,-50 50,-50 27.61424,0 50,22.38577 50,50 z" transform="matrix(0.16,0,0,0.16,-29.2,961.18425)"/><path style="color:#000;fill:#eee;fill-opacity:1;fill-rule:nonzero;stroke:none;stroke-width:.2;marker:none;visibility:visible;display:inline;overflow:visible;enable-background:accumulate" id="path6367" d="m 7.6,1039.1578 c -0.8864,0 -1.6,0.7136 -1.6,1.6 l 0,3.2 c 0,0.8864 0.7136,1.6 1.6,1.6 l 2.31,0 -0.56,2.03 a 0.240024,0.21699386 0 0 0 0.40504,0.21 l 2.47496,-2.24 0.17,0 c 0.8864,0 1.6,-0.7136 1.6,-1.6 l 0,-3.2 c 0,-0.8864 -0.7136,-1.6 -1.6,-1.6 l -4.8,0 z m -0.64,1.2 6.08,0 c 0.08864,0 0.16,0.071 0.16,0.16 l 0,0.48 c 0,0.089 -0.0712,0.16 -0.16,0.16 l -6.08,0 c -0.08864,0 -0.16,-0.071 -0.16,-0.16 l 0,-0.48 c 0,-0.089 0.0712,-0.16 0.16,-0.16 z m 0,1.6 3.36,0 c 0.08864,0 0.16,0.071 0.16,0.16 l 0,0.48 c 0,0.089 -0.0712,0.16 -0.16,0.16 l -3.36,0 c -0.08864,0 -0.16,-0.071 -0.16,-0.16 l 0,-0.48 c 0,-0.089 0.0712,-0.16 0.16,-0.16 z m 4.48,0 1.6,0 c 0.08864,0 0.16,0.071 0.16,0.16 l 0,0.48 c 0,0.089 -0.0712,0.16 -0.16,0.16 l -1.6,0 c -0.08864,0 -0.16,-0.071 -0.16,-0.16 l 0,-0.48 c 0,-0.089 0.0712,-0.16 0.16,-0.16 z m -4.48,1.6 4.48,0 c 0.08864,0 0.16,0.071 0.16,0.16 l 0,0.48 c 0,0.089 -0.0712,0.16 -0.16,0.16 l -4.48,0 c -0.08864,0 -0.16,-0.071 -0.16,-0.16 l 0,-0.48 c 0,-0.089 0.0712,-0.16 0.16,-0.16 z m 5.6,0 0.48,0 c 0.08864,0 0.16,0.071 0.16,0.16 l 0,0.48 c 0,0.089 -0.0712,0.16 -0.16,0.16 l -0.48,0 c -0.08864,0 -0.16,-0.071 -0.16,-0.16 l 0,-0.48 c 0,-0.089 0.0712,-0.16 0.16,-0.16 z"/></g></svg>