<svg xmlns="http://www.w3.org/2000/svg" xmlns:svg="http://www.w3.org/2000/svg" id="svg4682" width="48" height="48" version="1.1"><metadata id="metadata4687"/><g id="layer1" transform="translate(0,-1004.3622)"><path style="color:#000;display:inline;overflow:visible;visibility:visible;opacity:1;fill:#757575;fill-opacity:1;fill-rule:nonzero;stroke:none;stroke-width:3.98622036;stroke-linecap:round;stroke-linejoin:round;stroke-miterlimit:4;stroke-dasharray:none;stroke-dashoffset:0;stroke-opacity:1;marker:none;enable-background:accumulate" id="path7421-6" d="M 29 6 C 24.029435 6 20 10.0295 20 15 C 20 19.9705 24.029435 24 29 24 C 33.970565 24 38 19.9705 38 15 C 38 10.0295 33.970565 6 29 6 z M 10 13.5 A 3.5 3.5 0 0 0 6.5 17 L 6.5 24 A 3.5 3.5 0 0 0 10 27.5 A 3.5 3.5 0 0 0 13.5 24 L 13.5 17 A 3.5 3.5 0 0 0 10 13.5 z M 2 24 A 8 8 0 0 0 9 31.927734 L 9 42 L 11 42 L 11 31.929688 A 8 8 0 0 0 18 24 L 16 24 A 6 6 0 0 1 10 30 A 6 6 0 0 1 4 24 L 2 24 z M 29 29 C 21 29 14 32 14 37.5 L 14 42 L 44 42 L 44 37.5 C 44 31 37 29 29 29 z" transform="translate(0,1004.3622)"/></g></svg>