<svg xmlns="http://www.w3.org/2000/svg" xmlns:svg="http://www.w3.org/2000/svg" id="svg4682" width="24" height="24" version="1.1"><metadata id="metadata4687"/><g id="layer1" transform="translate(0,-1028.3622)"><path style="color:#000;display:inline;overflow:visible;visibility:visible;fill:#757575;fill-opacity:1;fill-rule:nonzero;stroke:none;stroke-width:1;marker:none;enable-background:accumulate" id="circle7134" d="M 4 5 L 4 7 L 15 7 L 15 5 L 4 5 z M 17 5 L 17 14.050781 A 2.5 2.5 0 0 0 16.5 14 A 2.5 2.5 0 0 0 14 16.5 A 2.5 2.5 0 0 0 16.5 19 A 2.5 2.5 0 0 0 19 16.5 L 19 7 L 21 7 L 21 5 L 19 5 L 17 5 z M 4 9 L 4 11 L 15 11 L 15 9 L 4 9 z M 4 13 L 4 15 L 12 15 L 12 13 L 4 13 z" transform="translate(0,1028.3622)"/></g></svg>