<svg xmlns="http://www.w3.org/2000/svg" xmlns:svg="http://www.w3.org/2000/svg" id="svg4682" width="24" height="24" version="1.1"><metadata id="metadata4687"/><g id="layer1" transform="translate(0,-1028.3622)"><path id="path7609" d="M 6.11914,1032.3622 4,1034.4813 l 4.52536,4.528 2.12109,-2.1211 z m 9.82031,1.9395 L 4,1046.2411 l 2.12109,2.1211 11.93946,-11.9394 1.93945,1.9394 0,-6 -6,0 z m -9.81836,12.6464 -0.70703,-0.707 11.93946,-11.9394 -0.93946,-0.9395 2.58594,0 0,2.5879 -0.93945,-0.9414 z m -0.002,-13.1718 3.11325,3.1119 -0.70703,0.707 -3.11325,-3.1119 z m 11.9395,10.5254 -2.58372,-2.5851 -2.1211,2.1211 2.58373,2.5851 -1.9375,1.9394 6,0 0,-6 z m -3.2908,-0.464 0.70708,-0.707 2.58568,2.585 0.93945,-0.9394 0,2.5859 -2.58789,0 0.94141,-0.9394 z" style="color:#000;display:inline;overflow:visible;visibility:visible;opacity:1;fill:#000;fill-opacity:1;fill-rule:nonzero;stroke:none;stroke-width:1;stroke-linecap:round;stroke-linejoin:round;stroke-miterlimit:4;stroke-dasharray:none;stroke-dashoffset:0;stroke-opacity:1;marker:none;enable-background:accumulate"/></g></svg>