<svg xmlns="http://www.w3.org/2000/svg" xmlns:svg="http://www.w3.org/2000/svg" id="svg4682" width="24" height="24" version="1.1"><metadata id="metadata4687"/><g id="layer1" transform="translate(0,-1028.3622)"><path id="path6688-0" d="m 7.9999998,1033.3622 c -1.108,0 -2,0.892 -2,2 l 0,2 -2,0 0,-2 -3.00000001,3 3.00000001,3 0,-2 2,0 0,2.5 c 0,1.108 0.892,2 2,2 l 3.3594002,0 -0.8438,3.3789 c -0.1212,0.4908 0.4793,0.8309 0.8379,0.4746 l 3.8535,-3.8535 0.793,0 c 1.108,0 2,-0.892 2,-2 l 0,-2.5 2,0 0,2 3,-3 -3,-3 0,2 -2,0 0,-2 c 0,-1.108 -0.892,-2 -2,-2 l -8.0000002,0 z m -1,2 1.6504,0 0,1.5 -1.6504,0 0,-1.5 z m 3,0 7.0000002,0 0,1.5 -7.0000002,0 0,-1.5 z m -3,2.5 6.5000002,0 0,1.5 -6.5000002,0 0,-1.5 z m 8.0000002,0 2,0 0,1.5 -2,0 0,-1.5 z m -8.0000002,2.5 4.5000002,0 0,1.5 -4.5000002,0 0,-1.5 z m 6.0000002,0 4,0 0,1.5 -4,0 0,-1.5 z" style="color:#000;display:inline;overflow:visible;visibility:visible;opacity:1;fill:#ffb54c;fill-opacity:1;fill-rule:nonzero;stroke:none;stroke-width:1;stroke-linecap:round;stroke-linejoin:round;stroke-miterlimit:3.70000005;stroke-dasharray:none;stroke-dashoffset:0;stroke-opacity:1;marker:none;enable-background:accumulate"/></g></svg>