<svg xmlns="http://www.w3.org/2000/svg" xmlns:svg="http://www.w3.org/2000/svg" id="svg4682" width="24" height="24" version="1.1"><metadata id="metadata4687"/><g id="layer1" transform="translate(0,-1028.3622)"><path id="path7587" d="m 17,1030.3622 0,3 -9,0 -3,0 0,6.0009 3,0 0,-3.0009 9,0 0,3 4.5,-4.5039 z m 1,2.4141 2.08594,2.084 -2.08594,2.0898 0,-1.5879 -11,0 0,3.0009 -1,0 0,-3.0009 0,-1 1,0 11,0 z m -2,8.5868 0,2.9991 -9,0 0,-3 -4.5,4.5039 4.5,4.4961 0,-3 9,0 3,0 0,-5.9991 z m 1,1 1,0 0,2.9991 0,1 -1,0 -11,0 0,1.5859 -2.08594,-2.0839 2.08594,-2.0899 0,1.5879 11,0 z" style="color:#000;display:inline;overflow:visible;visibility:visible;opacity:1;fill:#000;fill-opacity:1;fill-rule:nonzero;stroke:none;stroke-width:.5;stroke-linecap:round;stroke-linejoin:round;stroke-miterlimit:4;stroke-dasharray:none;stroke-dashoffset:0;stroke-opacity:1;marker:none;enable-background:accumulate"/></g></svg>