<svg xmlns="http://www.w3.org/2000/svg" xmlns:svg="http://www.w3.org/2000/svg" id="svg4682" width="48" height="48" version="1.1"><metadata id="metadata4687"/><g id="layer1" transform="translate(0,-1004.3622)"><path style="color:#000;display:inline;overflow:visible;visibility:visible;fill:#757575;fill-opacity:1;fill-rule:nonzero;stroke:none;stroke-width:.08999999;marker:none;enable-background:accumulate" id="path6784" d="m 24,1010.3622 c -9.94112,0 -18,8.0589 -18,18 0,9.9411 8.05888,18 18,18 9.94112,0 18,-8.0589 18,-18 0,-9.9411 -8.05888,-18 -18,-18 z m 0,11 c 3.866,0 7,3.134 7,7 0,3.866 -3.134,7 -7,7 -3.866,0 -7,-3.134 -7,-7 0,-3.866 3.134,-7 7,-7 z m 0,5 c -1.10458,0 -2,0.8954 -2,2 0,1.1046 0.89542,2 2,2 1.10456,0 2,-0.8954 2,-2 0,-1.1046 -0.89544,-2 -2,-2 z"/></g></svg>