<svg xmlns="http://www.w3.org/2000/svg" xmlns:svg="http://www.w3.org/2000/svg" id="svg4682" width="24" height="24" version="1.1"><metadata id="metadata4687"/><g id="layer1" transform="translate(0,-1028.3622)"><path style="color:#000;display:inline;overflow:visible;visibility:visible;opacity:1;vector-effect:none;fill:#ffb54c;fill-opacity:1;fill-rule:evenodd;stroke:none;stroke-width:2;stroke-linecap:butt;stroke-linejoin:round;stroke-miterlimit:4;stroke-dasharray:none;stroke-dashoffset:4.19999981;stroke-opacity:1;marker:none;enable-background:accumulate" id="rect8420" d="m 5.5,1033.3622 c -0.831,0 -1.5,0.669 -1.5,1.5 v 3.5 h 1.5 v -3.5 h 13 v 11 H 13 v 1.5 h 5.5 c 0.831,0 1.5,-0.669 1.5,-1.5 v -11 c 0,-0.831 -0.669,-1.5 -1.5,-1.5 z m -1.5,6.5 v 1.5 c 3.31371,0 6,2.6863 6,6 h 1.5 c 0,-4.1421 -3.35786,-7.5 -7.5,-7.5 z m 0,3 v 1.5 c 1.65685,0 3,1.3432 3,3 h 1.5 c 0,-2.4853 -2.01472,-4.5 -4.5,-4.5 z m 0,3 v 1.5 h 1.5 c 0,-0.8284 -0.67157,-1.5 -1.5,-1.5 z"/></g></svg>