<svg xmlns="http://www.w3.org/2000/svg" xmlns:svg="http://www.w3.org/2000/svg" id="svg4682" width="24" height="24" version="1.1"><metadata id="metadata4687"/><g id="layer1" transform="translate(0,-1028.3622)"><path style="color:#000;display:inline;overflow:visible;visibility:visible;opacity:1;fill:#ffb54c;fill-opacity:1;fill-rule:nonzero;stroke:none;stroke-width:10;stroke-linecap:round;stroke-linejoin:round;stroke-miterlimit:4;stroke-dasharray:none;stroke-dashoffset:0;stroke-opacity:1;marker:none;enable-background:accumulate" id="path7485-1" d="m 12,1032.3622 c -4.4182779,0 -7.9999999,3.5817 -7.9999999,8 0,4.4183 3.581722,8 7.9999999,8 4.418278,0 8,-3.5817 8,-8 0,-4.4183 -3.581722,-8 -8,-8 z m 0,2 c 3.313708,0 6,2.6863 6,6 0,3.3137 -2.686292,6 -6,6 -3.3137084,0 -6.0000001,-2.6863 -6.0000001,-6 0,-3.3137 2.6862917,-6 6.0000001,-6 z m -1,2 0,2 2,0 0,-2 z m 0,3 0,5 2,0 0,-5 z"/></g></svg>