<svg xmlns="http://www.w3.org/2000/svg" xmlns:svg="http://www.w3.org/2000/svg" id="svg4682" width="24" height="24" version="1.1"><metadata id="metadata4687"/><g id="layer1" transform="translate(0,-1028.3622)"><path style="color:#000;fill:#757575;fill-opacity:1;fill-rule:nonzero;stroke:none;stroke-width:.5;marker:none;visibility:visible;display:inline;overflow:visible;enable-background:accumulate" id="rect4758" d="m 6.875,1032.3622 c -1.59275,0 -2.875,1.2824 -2.875,2.8753 l 0,5.7505 c 0,1.5929 1.28225,2.8753 2.875,2.8753 l 4.03125,0 -0.710937,3.9027 c -0.10316,0.4093 0.49364,0.7766 0.8125,0.5 l 5.054687,-4.4027 1.0625,0 c 1.59275,0 2.875,-1.2824 2.875,-2.8753 l 0,-5.7505 c 0,-1.5929 -1.28225,-2.8753 -2.875,-2.8753 z m -0.875,2.0002 12,0 0,1.5001 -12,0 z m 0,3.0003 7,0 0,1.5001 -7,0 z m 8.5,0 3.5,0 0,1.5001 -3.5,0 z m -8.5,3.0002 9,0 0,1.5002 -9,0 z m 10.5,0 1.5,0 0,1.5002 -1.5,0 z"/></g></svg>