<svg xmlns="http://www.w3.org/2000/svg" xmlns:svg="http://www.w3.org/2000/svg" id="svg4682" width="48" height="48" version="1.1"><metadata id="metadata4687"/><g id="layer1" transform="translate(0,-1004.3622)"><path style="color:#000;display:inline;overflow:visible;visibility:visible;fill:#757575;fill-opacity:1;fill-rule:nonzero;stroke:none;stroke-width:1.125;marker:none;enable-background:accumulate" id="path6883" d="m 36,1010.3622 -17.75015,7.1251 c -1.326872,0.6509 -2.250019,1.9847 -2.250019,3.5626 v 5.3125 10.0627 c -0.325482,-0.065 -0.654823,-0.063 -1.000008,-0.063 -2.761442,0 -5.000041,2.2385 -5.000041,5 0,2.7616 2.238599,5.0001 5.000041,5.0001 2.761443,0 5.000041,-2.2385 5.000041,-5.0001 v -16.6252 l 12.000102,-4.7499 v 12.4375 c -0.325484,-0.065 -0.654825,-0.061 -1.000008,-0.061 -2.761445,0 -5.00004,2.2385 -5.00004,4.9999 0,2.7615 2.238596,5 5.00004,5 2.76144,0 5.000039,-2.2385 5.000039,-5 v -19.0002 -8.0001 z"/></g></svg>