<svg xmlns="http://www.w3.org/2000/svg" xmlns:svg="http://www.w3.org/2000/svg" id="svg4682" width="48" height="48" version="1.1"><metadata id="metadata4687"/><g id="layer1" transform="translate(0,-1004.3622)"><path style="color:#000;display:inline;overflow:visible;visibility:visible;opacity:1;fill:#757575;fill-opacity:1;fill-rule:nonzero;stroke:none;stroke-width:2.25006151;stroke-linecap:round;stroke-linejoin:round;stroke-miterlimit:3.70000005;stroke-dasharray:none;stroke-dashoffset:0;stroke-opacity:1;marker:none;enable-background:accumulate" id="path6832" d="M 10,6 C 8.8954305,6 8,6.8954305 8,8 v 3.001953 L 11,11 v 18 l -3,0.002 V 31.75 c 0,0.08572 0.016058,0.166753 0.025391,0.25 H 8 c 0,1.104569 0.8954305,2 2,2 v -0.02539 c 0.08323,0.0092 0.164276,0.02553 0.25,0.02539 H 24 v 3 h -7 v 5 h 18 v -5 h -7 v -3 h 7 c 2.761424,0 5,-2.238576 5,-5 h -5 v 0.002 H 15 v -18 H 35 V 11 h 5 C 40,8.2385763 37.761424,6 35,6 Z m 7,7.001953 v 6 h 19 v -6 z m 0,8 v 6 h 19 v -6 z" transform="translate(0,1004.3622)"/></g></svg>