<svg xmlns="http://www.w3.org/2000/svg" xmlns:svg="http://www.w3.org/2000/svg" id="svg4682" width="24" height="24" version="1.1"><metadata id="metadata4687"/><g id="layer1" transform="translate(0,-1028.3622)"><path style="color:#000;fill:#757575;fill-opacity:1;fill-rule:nonzero;stroke:none;stroke-width:1;marker:none;visibility:visible;display:inline;overflow:visible;enable-background:accumulate" id="path6883" d="m 17.777681,1032.3624 -7.8887569,3.1666 c -0.5897058,0.2893 -0.9999834,0.8821 -0.9999834,1.5834 l 0,2.361 0,4.4722 c -0.1446553,-0.029 -0.2910262,-0.028 -0.444437,-0.028 -1.2272773,0 -2.2221852,0.9949 -2.2221852,2.2222 0,1.2273 0.9949079,2.2222 2.2221852,2.2222 1.2272773,0 2.2221853,-0.9949 2.2221853,-2.2222 l 0,-7.3888 5.333245,-2.111 0,5.5276 c -0.144656,-0.029 -0.291026,-0.027 -0.444437,-0.027 -1.227278,0 -2.222185,0.9949 -2.222185,2.2221 0,1.2273 0.994907,2.2222 2.222185,2.2222 1.227276,0 2.222184,-0.9949 2.222184,-2.2222 l 0,-8.4443 0,-3.5555 z"/></g></svg>