<svg xmlns="http://www.w3.org/2000/svg" xmlns:svg="http://www.w3.org/2000/svg" id="svg4682" width="48" height="48" version="1.1"><metadata id="metadata4687"/><g id="layer1" transform="translate(0,-1004.3622)"><path style="color:#000;display:inline;overflow:visible;visibility:visible;fill:#757575;fill-opacity:1;fill-rule:nonzero;stroke:none;stroke-width:.56249952;marker:none;enable-background:accumulate" id="rect4758" d="m 12.468771,1010.3622 c -3.583682,0 -6.468739,2.8854 -6.468739,6.4694 v 12.9387 c 0,3.584 2.885058,6.4694 6.468739,6.4694 h 9.070296 l -1.599606,8.781 c -0.232109,0.921 1.110689,1.7474 1.828122,1.125 l 11.373026,-9.906 h 2.39062 c 3.583681,0 6.468739,-2.8854 6.468739,-6.4694 v -12.9387 c 0,-3.584 -2.885058,-6.4694 -6.468739,-6.4694 z m -1.968748,4.5005 h 26.999953 v 3.3752 H 10.500024 Z m 0,6.7506 h 15.749972 v 3.3753 H 10.500024 Z m 19.124968,0 h 7.874985 v 3.3753 h -7.874985 z m -19.124968,6.7505 h 20.249965 v 3.3754 H 10.500024 Z m 23.62496,0 h 3.374993 v 3.3754 h -3.374993 z"/></g></svg>