<svg xmlns="http://www.w3.org/2000/svg" xmlns:svg="http://www.w3.org/2000/svg" id="svg3428" width="20" height="20" version="1.1"><metadata id="metadata3433"/><g id="layer1" transform="translate(0,-1032.3622)"><path style="fill:#fecb65;fill-opacity:1;stroke:none" id="path6419" d="m 295,507.36218 c 0,27.61424 -22.38576,50 -50,50 -27.61424,0 -50,-22.38576 -50,-50 0,-27.61423 22.38576,-50 50,-50 27.61424,0 50,22.38577 50,50 z" transform="matrix(0.16,0,0,0.16,-29.2,961.18425)"/><path style="fill:#ff7200;fill-opacity:1;stroke:none" id="path6421" d="m 6.8,1037.568 0,1.6 -1.6,0 0,0.8 1.6,0 0,4.8 c 0,0.4432 0.3568,0.8 0.8,0.8 l 4.8,0 0,1.6 0.8,0 0,-1.6 1.6,0 0,-0.8 -1.6,0 0,-4.8 c 0,-0.4432 -0.35688,-0.8 -0.8,-0.8 l -4.8,0 0,-1.6 -0.8,0 z m 0.8,2.4 4.8,0 0,4.8 -4.8,0 0,-4.8 z m 1.22496,1.35 a 0.2323491,0.2323491 0 0 0 -0.0752,0.05 0.2323491,0.2323491 0 0 0 -0.0248,0.025 0.2323491,0.2323491 0 0 0 -0.0496,0.05 l -0.8,1.6 a 0.2323491,0.2323491 0 0 0 -0.0248,0.1 0.2323491,0.2323491 0 0 0 0,0.025 l 0,1.1 a 0.2323491,0.2323491 0 0 0 0.0248,0.1 0.2323491,0.2323491 0 0 0 0.0248,0.05 0.2323491,0.2323491 0 0 0 0.0248,0.025 0.2323491,0.2323491 0 0 0 0.0248,0.025 0.2323491,0.2323491 0 0 0 0.0496,0.025 0.2323491,0.2323491 0 0 0 0.0752,0.025 l 3.85,0 a 0.2323491,0.2323491 0 0 0 0.0752,-0.025 0.2323491,0.2323491 0 0 0 0.0496,-0.025 0.2323491,0.2323491 0 0 0 0.0248,-0.025 0.2323491,0.2323491 0 0 0 0.0248,-0.025 0.2323491,0.2323491 0 0 0 0.0248,-0.05 0.2323491,0.2323491 0 0 0 0.0248,-0.1 l 0,-0.95 a 0.2323491,0.2323491 0 0 0 -0.0248,-0.1 0.2323491,0.2323491 0 0 0 -0.0248,-0.05 0.2323491,0.2323491 0 0 0 -0.0248,-0.025 0.2323491,0.2323491 0 0 0 -0.0496,-0.025 0.2323491,0.2323491 0 0 0 -0.0496,-0.025 l -1.1,-0.3249 a 0.2323491,0.2323491 0 0 0 -0.12496,0 0.2323491,0.2323491 0 0 0 -0.1,0.05 l -0.57504,0.4749 -1,-1.85 a 0.2323491,0.2323491 0 0 0 -0.1,-0.1 0.2323491,0.2323491 0 0 0 -0.1,-0.025 0.2323491,0.2323491 0 0 0 -0.0248,0 0.2323491,0.2323491 0 0 0 -0.0248,0 z"/></g></svg>