<svg xmlns="http://www.w3.org/2000/svg" xmlns:svg="http://www.w3.org/2000/svg" id="svg3428" width="20" height="20" version="1.1"><metadata id="metadata3433"/><g id="layer1" transform="translate(0,-1032.3622)"><g id="g4552" transform="translate(3,1.0000035)"><g id="g6375" transform="translate(-1965.6949,565.00001)"><g id="g3755"><path style="fill:#f80;fill-opacity:.8509804;stroke:none" id="path6377" d="m 295,507.36218 c 0,27.61424 -22.38576,50 -50,50 -27.61424,0 -50,-22.38576 -50,-50 0,-27.61423 22.38576,-50 50,-50 27.61424,0 50,22.38577 50,50 z" transform="matrix(0.16,0,0,0.16,1933.4949,395.18424)"/><path style="fill:#eee;fill-opacity:1;stroke:none" id="path6379" d="m 1969.4981,471.56803 0,1.6 -1.6,0 0,0.8 1.6,0 0,4.8 c 0,0.4432 0.3568,0.8 0.8,0.8 l 4.8,0 0,1.6 0.8,0 0,-1.6 1.6,0 0,-0.8 -1.6,0 0,-4.8 c 0,-0.4432 -0.3569,-0.8 -0.8,-0.8 l -4.8,0 0,-1.6 -0.8,0 z m 0.8,2.4 4.8,0 0,4.8 -4.8,0 0,-4.8 z m 1.225,1.35 a 0.2323491,0.2323491 0 0 0 -0.075,0.05 0.2323491,0.2323491 0 0 0 -0.025,0.025 0.2323491,0.2323491 0 0 0 -0.05,0.05 l -0.8,1.6 a 0.2323491,0.2323491 0 0 0 -0.025,0.1 0.2323491,0.2323491 0 0 0 0,0.025 l 0,1.1 a 0.2323491,0.2323491 0 0 0 0.025,0.1 0.2323491,0.2323491 0 0 0 0.025,0.05 0.2323491,0.2323491 0 0 0 0.025,0.025 0.2323491,0.2323491 0 0 0 0.025,0.025 0.2323491,0.2323491 0 0 0 0.05,0.025 0.2323491,0.2323491 0 0 0 0.075,0.025 l 3.85,0 a 0.2323491,0.2323491 0 0 0 0.075,-0.025 0.2323491,0.2323491 0 0 0 0.05,-0.025 0.2323491,0.2323491 0 0 0 0.025,-0.025 0.2323491,0.2323491 0 0 0 0.025,-0.025 0.2323491,0.2323491 0 0 0 0.025,-0.05 0.2323491,0.2323491 0 0 0 0.025,-0.1 l 0,-0.95 a 0.2323491,0.2323491 0 0 0 -0.025,-0.1 0.2323491,0.2323491 0 0 0 -0.025,-0.05 0.2323491,0.2323491 0 0 0 -0.025,-0.025 0.2323491,0.2323491 0 0 0 -0.05,-0.025 0.2323491,0.2323491 0 0 0 -0.05,-0.025 l -1.1,-0.325 a 0.2323491,0.2323491 0 0 0 -0.125,0 0.2323491,0.2323491 0 0 0 -0.1,0.05 l -0.575,0.475 -1,-1.85 a 0.2323491,0.2323491 0 0 0 -0.1,-0.1 0.2323491,0.2323491 0 0 0 -0.1,-0.025 0.2323491,0.2323491 0 0 0 -0.025,0 0.2323491,0.2323491 0 0 0 -0.025,0 z"/></g></g></g></g></svg>