<svg xmlns="http://www.w3.org/2000/svg" xmlns:svg="http://www.w3.org/2000/svg" id="svg4682" width="24" height="24" version="1.1"><metadata id="metadata4687"/><g id="layer1" transform="translate(0,-1028.3622)"><path style="color:#000;fill:#ffb54c;fill-opacity:1;fill-rule:nonzero;stroke:none;stroke-width:.5;marker:none;visibility:visible;display:inline;overflow:visible;enable-background:accumulate" id="rect6729" d="M 5 4 L 5 15 L 4 15 L 4 17 L 5 17 L 5 20 L 7 20 L 7 17 L 8 17 L 8 15 L 7 15 L 7 4 L 5 4 z M 11 4 L 11 6 L 10 6 L 10 8 L 11 8 L 11 20 L 13 20 L 13 8 L 14 8 L 14 6 L 13 6 L 13 4 L 11 4 z M 17 4 L 17 12 L 16 12 L 16 14 L 17 14 L 17 20 L 19 20 L 19 14 L 20 14 L 20 12 L 19 12 L 19 4 L 17 4 z" transform="translate(0,1028.3622)"/></g></svg>