<svg xmlns="http://www.w3.org/2000/svg" xmlns:svg="http://www.w3.org/2000/svg" id="svg4682" width="95" height="105" version="1.1"><metadata id="metadata4687"/><g id="layer1" transform="translate(0,-947.36218)"><g id="g6404" transform="translate(-3484.3145,4000.5586)"><path style="color:#000;fill:#f80;fill-opacity:1;fill-rule:nonzero;stroke:none;stroke-width:2;marker:none;visibility:visible;display:inline;overflow:visible;enable-background:accumulate" id="path6232" d="m 3531.8144,-3037.755 c -7.5388,0 -15.8823,2.647 -21.1764,7.9412 -9.3204,9.3202 -10.5588,38.6945 -10.6379,51.7831 7.5332,8.5666 18.4713,14.0674 30.7224,14.3769 0.3637,0.01 0.726,0.016 1.0919,0.016 0.366,0 0.7283,-0.01 1.092,-0.016 12.2511,-0.3095 23.1892,-5.8103 30.7225,-14.3769 -0.079,-13.0886 -1.3176,-42.4629 -10.638,-51.7831 -5.2941,-5.2942 -13.6376,-7.9412 -21.1765,-7.9412 z"/><path style="color:#000;fill:#fafafa;fill-opacity:1;fill-rule:nonzero;stroke:none;stroke-width:2;marker:none;visibility:visible;display:inline;overflow:visible;enable-background:accumulate" id="path6234" d="m 3514.8732,-3025.0559 c 4.5723,-3.8689 10.9101,-6.3529 16.9411,-6.3529 6.0311,0 12.3689,2.484 16.9412,6.3529 6.8824,5.8235 4.2353,16.4118 4.2353,16.4118 0,0 -2.1176,7.9412 -21.1765,7.9412 -19.0588,0 -21.1764,-7.9412 -21.1764,-7.9412 0,0 -2.6471,-10.5883 4.2353,-16.4118 z"/><text id="text6236" x="3520.662" y="-2967.418" xml:space="preserve" style="font-size:40px;font-style:normal;font-variant:normal;font-weight:400;font-stretch:normal;line-height:125%;letter-spacing:0;word-spacing:0;fill:#fafafa;fill-opacity:1;stroke:none;font-family:Roboto;-inkscape-font-specification:Roboto"><tspan style="font-weight:700;fill:#fafafa;fill-opacity:1;-inkscape-font-specification:Roboto Bold" id="tspan6238" x="3520.662" y="-2967.418">3</tspan></text></g></g></svg>