<svg xmlns="http://www.w3.org/2000/svg" xmlns:svg="http://www.w3.org/2000/svg" id="svg4682" width="24" height="24" version="1.1"><metadata id="metadata4687"/><g id="layer1" transform="translate(0,-1028.3622)"><path style="opacity:1;fill:#fafafa;fill-opacity:1;fill-rule:nonzero;stroke:none;stroke-width:35.43307114;stroke-miterlimit:4;stroke-dasharray:none;stroke-opacity:1" id="path6532-6" d="M 12 5 A 8 8 0 0 0 4 13 L 4 15 L 6 15 L 6 13 A 6 6 0 0 1 12 7 A 6 6 0 0 1 18 13 L 16 13 L 19 16 L 22 13 L 20 13 A 8 8 0 0 0 12 5 z M 4 17 L 4 19 L 6 19 L 6 17 L 4 17 z M 8.3339844 17 L 8.3339844 19 L 10.333984 19 L 10.333984 17 L 8.3339844 17 z M 12.666016 17 L 12.666016 19 L 14.666016 19 L 14.666016 17 L 12.666016 17 z M 17 17 L 17 19 L 21 19 L 21 17 L 17 17 z" transform="translate(0,1028.3622)"/></g></svg>