<svg xmlns="http://www.w3.org/2000/svg" xmlns:svg="http://www.w3.org/2000/svg" id="svg4682" width="130" height="130" version="1.1"><metadata id="metadata4687"/><g id="layer1" transform="translate(0,-922.36218)"><path id="path5298" d="m 65.000005,942.36218 c -1.209213,0 -2.418425,0.2945 -3.375541,0.88614 -2.14029,1.3227 -3.375542,6.75097 -3.375542,6.75097 l -2.025303,6.07602 c 5.850886,3.67983 11.701772,3.7182 17.552657,0 l -2.025302,-6.07602 c 0,0 -1.235252,-5.42827 -3.375542,-6.75097 -0.957116,-0.59164 -2.166329,-0.88614 -3.375426,-0.88614 z m -14.177231,29.91566 -6.751084,20.25314 c 13.845403,8.92852 27.795769,9.10192 41.856518,0 l -6.751089,-20.25314 c -9.530833,7.0896 -18.982627,7.11207 -28.354345,0 z m -19.578075,28.35436 -9.451448,31.73 86.413499,0 -9.451561,-31.73 -10.126501,0 1.35012,4.0507 c 0,0 1.12142,3.6194 0,4.7257 -11.855473,11.6964 -38.261366,11.1804 -49.957721,-0.6751 -0.94836,-0.9611 0,-4.0506 0,-4.0506 l 1.350124,-4.0507 -10.126511,0 z" style="fill:#fafafa;fill-opacity:1;stroke:none"/></g></svg>