<svg xmlns="http://www.w3.org/2000/svg" xmlns:svg="http://www.w3.org/2000/svg" id="svg3428" width="20" height="20" version="1.1"><metadata id="metadata3433"/><g id="layer1" transform="translate(0,-1032.3622)"><path id="path6854" d="m 100,56.362183 c 0,5.522847 -4.477153,10 -10,10 -5.522847,0 -10,-4.477153 -10,-10 0,-5.522848 4.477153,-10 10,-10 5.522847,0 10,4.477152 10,10 z" transform="matrix(-0.8,0,0,-0.8,82,1087.452)" style="color:#000;fill:#eee;fill-opacity:.8509804;fill-rule:nonzero;stroke:none;stroke-width:.10000000000000001;marker:none;visibility:visible;display:inline;overflow:visible;enable-background:accumulate"/><path style="color:#000;fill:#f80;fill-opacity:1;stroke:none;stroke-width:.1;marker:none;visibility:visible;display:inline;overflow:visible;enable-background:accumulate" id="path6856" d="m 10,1037.5622 c -1.32548,0 -2.4,1.0746 -2.4,2.4 l 0,0.8 0,1.6 c -0.441824,0 -0.8,0.3582 -0.8,0.8 l 0,3.2 c 0,0.4418 0.358176,0.8 0.8,0.8 l 4.8,0 c 0.441824,0 0.8,-0.3582 0.8,-0.8 l 0,-3.2 c 0,-0.4418 -0.358176,-0.8 -0.8,-0.8 l 0,-2.4 c 0,-1.3254 -1.07452,-2.4 -2.4,-2.4 z m 0,0.8 c 0.883656,0 1.6,0.7163 1.6,1.6 l 0,2.4 -3.2,0 0,-1.6 0,-0.8 c 0,-0.8837 0.716344,-1.6 1.6,-1.6 z"/></g></svg>