<svg xmlns="http://www.w3.org/2000/svg" xmlns:svg="http://www.w3.org/2000/svg" id="svg4682" width="24" height="24" version="1.1"><metadata id="metadata4687"/><g id="layer1" transform="translate(0,-1028.3622)"><path style="color:#000;fill:#fafafa;fill-opacity:1;fill-rule:nonzero;stroke:none;stroke-width:.5;marker:none;visibility:visible;display:inline;overflow:visible;enable-background:accumulate" id="path4951" d="m 10.000025,1032.3622 c -3.31371,0 -6,2.6863 -6,6 0,3.3137 2.68629,6 6,6 1.44975,0 2.77535,-0.5191 3.8125,-1.375 0.007,0.01 0.0262,-0.01 0.0312,0 0.0509,0.051 0.20536,0.2054 0.15625,0.1563 l 0.34375,0.3437 0,0.5625 4.25,4.3125 1.40625,-1.4687 -4.25,-4.25 -0.46875,0 -0.59375,-0.5625 c 0.81379,-1.0241 1.31255,-2.3092 1.31255,-3.7188 0,-3.3137 -2.68629,-6 -6,-6 z m 0,2 c 2.20914,0 4,1.7909 4,4 0,2.2091 -1.79086,4 -4,4 -2.20914,0 -4,-1.7909 -4,-4 0,-2.2091 1.79086,-4 4,-4 z"/></g></svg>