<svg xmlns="http://www.w3.org/2000/svg" xmlns:svg="http://www.w3.org/2000/svg" id="svg4682" width="130" height="130" version="1.1"><metadata id="metadata4687"/><g id="layer1" transform="translate(0,-922.36218)"><path id="path4499" d="m 28.399975,942.36218 c -1.329601,0 -2.400002,1.20335 -2.400002,2.7375 l 0,57.26252 -3.600002,0 c -1.329601,0 -2.400002,1.0704 -2.400002,2.4 l 0,7.2 c 0,1.3296 1.070401,2.4 2.400002,2.4 l 3.600002,0 0,15.225 c 0,1.5342 1.070401,2.775 2.400002,2.775 l 7.200004,0 c 1.329601,0 2.400002,-1.2408 2.400002,-2.775 l 0,-15.225 3.600002,0 c 1.329601,0 2.400002,-1.0704 2.400002,-2.4 l 0,-7.2 c 0,-1.3296 -1.070401,-2.4 -2.400002,-2.4 l -3.600002,0 0,-57.26252 c 0,-1.53415 -1.070401,-2.7375 -2.400002,-2.7375 l -7.200004,0 z m 33.000022,0 c -1.329601,0 -2.400002,1.20342 -2.400002,2.7375 l 0,15.26251 -3.600002,0 c -1.329601,0 -2.400002,1.0704 -2.400002,2.4 l 0,7.20001 c 0,1.3296 1.070401,2.4 2.400002,2.4 l 3.600002,0 0,57.225 c 0,1.5342 1.070401,2.775 2.400002,2.775 l 7.200004,0 c 1.329601,0 2.400002,-1.2408 2.400002,-2.775 l 0,-57.225 3.600002,0 c 1.329601,0 2.400002,-1.0704 2.400002,-2.4 l 0,-7.20001 c 0,-1.3296 -1.070401,-2.4 -2.400002,-2.4 l -3.600002,0 0,-15.26251 c 0,-1.53408 -1.070401,-2.7375 -2.400002,-2.7375 l -7.200004,0 z m 33.000022,0 c -1.3296,0 -2.400002,1.20342 -2.400002,2.7375 l 0,39.26253 -3.600002,0 c -1.329601,0 -2.400002,1.0704 -2.400002,2.4 l 0,7.2 c 0,1.32961 1.070401,2.40001 2.400002,2.40001 l 3.600002,0 0,33.22498 c 0,1.5342 1.070402,2.775 2.400002,2.775 l 7.200001,0 c 1.3296,0 2.40001,-1.2408 2.40001,-2.775 l 0,-33.22498 3.6,0 c 1.3296,0 2.4,-1.0704 2.4,-2.40001 l 0,-7.2 c 0,-1.3296 -1.0704,-2.4 -2.4,-2.4 l -3.6,0 0,-39.26253 c 0,-1.53408 -1.07041,-2.7375 -2.40001,-2.7375 l -7.200001,0 z" style="fill:#fafafa;fill-opacity:1;fill-rule:nonzero;stroke:none"/></g></svg>