<svg xmlns="http://www.w3.org/2000/svg" xmlns:svg="http://www.w3.org/2000/svg" id="svg4682" width="24" height="24" version="1.1"><metadata id="metadata4687"/><g id="layer1" transform="translate(0,-1028.3622)"><path id="path7483" d="m 4.9999999,1033.3622 c -1.108,0 -2,0.892 -2,2 l 0,10 c 0,1.108 0.892,2 2,2 l 14.0000001,0 c 1.108,0 2,-0.892 2,-2 l 0,-10 0,-2 -2,0 -1.25,0 1.75,3.5 -3,0 -1.75,-3.5 -1.5,0 1.75,3.5 -3,0 -1.75,-3.5 -1.5000001,0 1.7500001,3.5 -3.0000001,0 -1.75,-3.5 -0.75,0 z" style="color:#000;display:inline;overflow:visible;visibility:visible;opacity:1;fill:#757575;fill-opacity:1;fill-rule:nonzero;stroke:none;stroke-width:.5;stroke-linecap:round;stroke-linejoin:round;stroke-miterlimit:4;stroke-dasharray:none;stroke-dashoffset:0;stroke-opacity:1;marker:none;enable-background:accumulate"/></g></svg>