<svg xmlns="http://www.w3.org/2000/svg" xmlns:svg="http://www.w3.org/2000/svg" id="svg4682" width="130" height="130" version="1.1"><metadata id="metadata4687"/><g id="layer1" transform="translate(0,-922.36218)"><path id="path3939" d="m 64.80716,952.25677 c -0.34932,0.0556 -0.66948,0.27332 -0.84828,0.57847 l -10.6812,18.50899 c -0.4326,0.72703 0.19512,1.81981 1.04112,1.81241 l 21.3624,0 c 0.846,0.0124 1.47372,-1.08538 1.04112,-1.81241 l -10.6812,-18.50899 c -0.24348,-0.41733 -0.75744,-0.65831 -1.23396,-0.57847 z m -41.14392,28.46979 c -2.01084,0 -3.66324,1.65249 -3.66324,3.6633 l 0,6 c 0,2.01083 1.6524,3.6633 3.66324,3.6633 l 82.67352,0 c 2.01072,0 3.66324,-1.65247 3.66324,-3.6633 l 0,-6 c 0,-2.01081 -1.65252,-3.6633 -3.66324,-3.6633 z m 30.53988,20.88754 c -0.807,0.07 -1.34256,1.118 -0.92544,1.8124 l 10.6812,18.509 c 0.41724,0.7297 1.665,0.7297 2.08224,0 l 10.6812,-18.509 c 0.4326,-0.727 -0.19512,-1.8198 -1.04112,-1.8124 l -21.3624,0 c -0.0384,0 -0.0768,0 -0.1152,0 z" style="color:#000;fill:#fafafa;fill-opacity:1;fill-rule:nonzero;stroke:none;stroke-width:2;marker:none;visibility:visible;display:inline;overflow:visible;enable-background:accumulate"/></g></svg>