<svg xmlns="http://www.w3.org/2000/svg" xmlns:svg="http://www.w3.org/2000/svg" id="svg4682" width="24" height="24" version="1.1"><metadata id="metadata4687"/><g id="layer1" transform="translate(0,-1028.3622)"><path style="color:#000;fill:#fafafa;fill-opacity:1;fill-rule:nonzero;stroke:none;stroke-width:.5;marker:none;visibility:visible;display:inline;overflow:visible;enable-background:accumulate" id="path5023" d="m 12,1032.3622 c -4.4182799,0 -7.9999999,3.5817 -7.9999999,8 0,4.4183 3.58172,8 7.9999999,8 4.41828,0 8,-3.5817 8,-8 l -2,0 c 0,3.3137 -2.68629,6 -6,6 -3.3137099,0 -5.9999999,-2.6863 -5.9999999,-6 0,-3.3137 2.68629,-6 5.9999999,-6 1.65686,0 3.16421,0.6642 4.25,1.75 l -2.25,2.25 6,0 0,-6 -2.34375,2.3438 c -1.44771,-1.4478 -3.44711,-2.3438 -5.65625,-2.3438 z"/></g></svg>