<svg xmlns="http://www.w3.org/2000/svg" xmlns:svg="http://www.w3.org/2000/svg" id="svg4682" width="24" height="24" version="1.1"><metadata id="metadata4687"/><g id="layer1" transform="translate(0,-1028.3622)"><path style="color:#000;fill:#757575;fill-opacity:1;fill-rule:nonzero;stroke:none;stroke-width:1;marker:none;visibility:visible;display:inline;overflow:visible;enable-background:accumulate" id="path6883" d="m 18.5,1031.3621 -8.875,3.5625 C 8.96157,1035.25 8.5,1035.917 8.5,1036.7059 l 0,2.6562 0,5.0313 c -0.16274,-0.033 -0.32741,-0.031 -0.5,-0.031 -1.38071,0 -2.5,1.1192 -2.5,2.5 0,1.3807 1.11929,2.5 2.5,2.5 1.38071,0 2.5,-1.1193 2.5,-2.5 l 0,-8.3125 6,-2.375 0,6.2187 c -0.16274,-0.033 -0.32741,-0.031 -0.5,-0.031 -1.38071,0 -2.5,1.1193 -2.5,2.5 0,1.3807 1.11929,2.5 2.5,2.5 1.38071,0 2.5,-1.1193 2.5,-2.5 l 0,-9.5 0,-4 z"/></g></svg>