<svg xmlns="http://www.w3.org/2000/svg" xmlns:svg="http://www.w3.org/2000/svg" id="svg4682" width="16" height="16" version="1.1"><metadata id="metadata4687"/><g id="layer1" transform="translate(0,-1036.3622)"><path style="color:#000;fill:#616161;fill-opacity:1;fill-rule:nonzero;stroke:none;stroke-width:1;marker:none;visibility:visible;display:inline;overflow:visible;enable-background:accumulate" id="path5963" d="M 8 3.5 C 7.4477153 3.5 7 3.9477153 7 4.5 C 7 5.0522847 7.4477153 5.5 8 5.5 C 8.5522847 5.5 9 5.0522847 9 4.5 C 9 3.9477153 8.5522847 3.5 8 3.5 z M 8 7 C 7.4477153 7 7 7.4477153 7 8 C 7 8.5522847 7.4477153 9 8 9 C 8.5522847 9 9 8.5522847 9 8 C 9 7.4477153 8.5522847 7 8 7 z M 8 10.5 C 7.4477153 10.5 7 10.947715 7 11.5 C 7 12.052285 7.4477153 12.5 8 12.5 C 8.5522847 12.5 9 12.052285 9 11.5 C 9 10.947715 8.5522847 10.5 8 10.5 z" transform="translate(0,1036.3622)"/></g></svg>