<svg xmlns="http://www.w3.org/2000/svg" xmlns:svg="http://www.w3.org/2000/svg" id="svg4682" width="24" height="24" version="1.1"><metadata id="metadata4687"/><g id="layer1" transform="translate(0,-1028.3622)"><path style="color:#000;fill:#757575;fill-opacity:1;fill-rule:nonzero;stroke:none;stroke-width:1;marker:none;visibility:visible;display:inline;overflow:visible;enable-background:accumulate" id="path7114-0" d="m 5.0000002,1033.3622 c -1.108,0 -1.81785,0.9071 -2,2 l 0,1 0,9 c 0,1.108 0.892,2 2,2 l 6.9999998,0 c 0,-4.9706 4.02944,-9 9,-9 l 0,-1 c 0,-1.108 -0.892,-2 -2,-2 l -7,0 -2,-2 -4.9999998,0 z M 21,1039.8622 c -4.14214,0 -7.5,3.3579 -7.5,7.5 l 1.5,0 c 0,-3.3137 2.68629,-6 6,-6 l 0,-1.5 z m 0,3 c -2.48528,0 -4.5,2.0147 -4.5,4.5 l 1.5,0 c 0,-1.6568 1.34315,-3 3,-3 l 0,-1.5 z m 0,3 c -0.82843,0 -1.5,0.6716 -1.5,1.5 l 1.5,0 0,-1.5 z"/></g></svg>