<svg xmlns="http://www.w3.org/2000/svg" xmlns:svg="http://www.w3.org/2000/svg" id="svg3428" width="20" height="20" version="1.1"><metadata id="metadata3433"/><g id="layer1" transform="translate(0,-1032.3622)"><path style="color:#000;fill:#f80;fill-opacity:.8509804;fill-rule:nonzero;stroke:none;stroke-width:.10000000000000001;marker:none;visibility:visible;display:inline;overflow:visible;enable-background:accumulate" id="path6371" d="m 100,56.362183 c 0,5.522847 -4.477153,10 -10,10 -5.522847,0 -10,-4.477153 -10,-10 0,-5.522848 4.477153,-10 10,-10 5.522847,0 10,4.477152 10,10 z" transform="matrix(-0.8,0,0,-0.8,82,1087.4519)"/><path id="path6373" d="m 14.8,1042.3726 c 0,-0.663 -0.53728,-1.2 -1.2,-1.2 -0.662798,0 -1.2,0.5371 -1.2,1.2 0,0.6625 0.53728,1.2001 1.2,1.2 0.66272,0 1.2,-0.5375 1.2,-1.2 z m -3.6,10e-5 c 0,-0.6631 -0.53728,-1.2001 -1.2,-1.2001 -0.66272,10e-5 -1.2,0.537 -1.2,1.2 0,0.6625 0.53728,1.2 1.2,1.2001 0.66272,-10e-5 1.2,-0.5376 1.2,-1.2 z m -3.6,-10e-5 c 0,-0.663 -0.53728,-1.2 -1.2,-1.1999 -0.66272,-10e-5 -1.2,0.5369 -1.2,1.2 0,0.6624 0.53728,1.1999 1.2,1.1999 0.6628,0 1.2,-0.5375 1.2,-1.2 z" style="color:#000;fill:#eee;fill-opacity:1;fill-rule:nonzero;stroke:none;stroke-width:.1;marker:none;visibility:visible;display:inline;overflow:visible;enable-background:accumulate"/></g></svg>