<svg xmlns="http://www.w3.org/2000/svg" xmlns:svg="http://www.w3.org/2000/svg" id="svg4682" width="130" height="130" version="1.1"><metadata id="metadata4687"/><g id="layer1" transform="translate(0,-922.36218)"><path style="color:#000;fill:#777;fill-opacity:1;fill-rule:nonzero;stroke:none;stroke-width:2;marker:none;visibility:visible;display:inline;overflow:visible;enable-background:accumulate" id="path4543-8" d="m 64.80716,952.25676 c -0.34932,0.0556 -0.66948,0.27333 -0.84828,0.57847 l -10.6812,18.509 c -0.4326,0.72703 0.19512,1.81981 1.04112,1.8124 l 21.3624,0 c 0.846,0.0124 1.47372,-1.08537 1.04112,-1.8124 l -10.6812,-18.509 c -0.24348,-0.41732 -0.75744,-0.6583 -1.23396,-0.57847 z m -41.14392,28.4698 c -2.01084,0 -3.66324,1.65248 -3.66324,3.6633 l 0,6 c 0,2.01083 1.6524,3.6633 3.66324,3.6633 l 82.67352,0 c 2.01072,0 3.66324,-1.65247 3.66324,-3.6633 l 0,-6 c 0,-2.01082 -1.65252,-3.6633 -3.66324,-3.6633 z m 30.53988,20.88754 c -0.807,0.069 -1.34256,1.1181 -0.92544,1.8124 l 10.6812,18.5089 c 0.41724,0.7298 1.665,0.7298 2.08224,0 l 10.6812,-18.5089 c 0.4326,-0.7271 -0.19512,-1.8198 -1.04112,-1.8124 l -21.3624,0 c -0.0384,0 -0.0768,0 -0.1152,0 z"/></g></svg>