<svg xmlns="http://www.w3.org/2000/svg" xmlns:svg="http://www.w3.org/2000/svg" id="svg4682" width="48" height="48" version="1.1"><metadata id="metadata4687"/><g id="layer1" transform="translate(0,-1004.3622)"><path style="color:#000;display:inline;overflow:visible;visibility:visible;fill:#757575;fill-opacity:1;fill-rule:nonzero;stroke:none;stroke-width:1;marker:none;enable-background:accumulate" id="path6761" d="m 24,1010.3622 c -9.94112,0 -18,8.0588 -18,18 h 4 c 0,-7.732 6.26802,-14 14,-14 7.73198,0 14,6.268 14,14 h 4 c 0,-9.9412 -8.05888,-18 -18,-18 z m -1,8 c -5.04256,0.5122 -9,4.8224 -9,10 h 4 c 0,-3.3136 2.6863,-6 6,-6 3.3137,0 6,2.6864 6,6 h 4 c 0,-5.5228 -4.47716,-10 -10,-10 -0.34518,0 -0.66384,-0.034 -1,0 z m 1,8 c -0.7733,0 -1.36772,0.475 -1.6875,1.125 l -6.0625,15.875 H 13 v 3 c 7,-0.026 15,-0.026 22,0 v -3 h -3.25 l -6.0625,-15.875 c -0.31978,-0.65 -0.9142,-1.125 -1.6875,-1.125 z"/></g></svg>