<svg xmlns="http://www.w3.org/2000/svg" xmlns:svg="http://www.w3.org/2000/svg" id="svg4682" width="24" height="24" version="1.1"><metadata id="metadata4687"/><g id="layer1" transform="translate(0,-1028.3622)"><path style="color:#000;fill:#757575;fill-opacity:1;fill-rule:nonzero;stroke:none;stroke-width:1;marker:none;visibility:visible;display:inline;overflow:visible;enable-background:accumulate" id="path6761" d="m 12,1031.3622 c -4.9705599,0 -8.9999999,4.0294 -8.9999999,9 l 2,0 c 0,-3.866 3.13401,-7 6.9999999,-7 3.86599,0 7,3.134 7,7 l 2,0 c 0,-4.9706 -4.02944,-9 -9,-9 z m -0.5,4 c -2.5212799,0.2561 -4.4999999,2.4112 -4.4999999,5 l 2,0 c 0,-1.6568 1.3431499,-3 2.9999999,-3 1.65685,0 3,1.3432 3,3 l 2,0 c 0,-2.7614 -2.23858,-5 -5,-5 -0.17259,0 -0.33192,-0.017 -0.5,0 z m 0.5,4 c -0.38665,0 -0.68386,0.2375 -0.84375,0.5625 l -3.0312499,7.9375 -1.625,0 0,1.5 C 10,1049.3492 14,1049.3492 17.5,1049.3622 l 0,-1.5 -1.625,0 -3.03125,-7.9375 c -0.15989,-0.325 -0.4571,-0.5625 -0.84375,-0.5625 z"/></g></svg>