<svg xmlns="http://www.w3.org/2000/svg" xmlns:svg="http://www.w3.org/2000/svg" id="svg4682" width="24" height="24" version="1.1"><metadata id="metadata4687"/><g id="layer1" transform="translate(0,-1028.3622)"><path style="color:#000;fill:#fafafa;fill-opacity:1;fill-rule:nonzero;stroke:none;stroke-width:.5;marker:none;visibility:visible;display:inline;overflow:visible;enable-background:accumulate" id="path5139" d="m 12,1030.3686 -3,3 3,3 0,-2 c 3.31371,0 6,2.6863 6,6 0,3.3137 -2.68629,6 -6,6 -3.31371,0 -6,-2.6863 -6,-6 l -2,0 c 0,4.4183 3.58172,8 8,8 4.41828,0 8,-3.5817 8,-8 0,-4.4183 -3.58172,-8 -8,-8 l 0,-2 z m -1.78125,7.125 c -0.0613,0.01 -0.11825,0.045 -0.15625,0.094 -0.0132,0.019 -0.0238,0.04 -0.0312,0.062 -0.0165,0.029 -0.0272,0.061 -0.0312,0.094 l 0,5.2188 c -6.5e-4,0.01 -6.5e-4,0.021 0,0.031 0.004,0.033 0.0147,0.065 0.0312,0.094 0.009,0.011 0.0199,0.022 0.0312,0.031 0.038,0.049 0.095,0.083 0.15625,0.094 0.0434,6e-4 0.087,-0.01 0.125,-0.031 0.0104,6e-4 0.0208,6e-4 0.0312,0 l 4.5,-2.5938 c 0.0113,-0.01 0.0217,-0.02 0.0312,-0.031 0.0434,-0.03 0.0768,-0.075 0.0937,-0.125 0.0105,-0.041 0.0105,-0.084 0,-0.125 -0.0178,-0.066 -0.0643,-0.1243 -0.125,-0.1562 l -4.5,-2.5938 c -0.009,-0.011 -0.0199,-0.022 -0.0312,-0.031 -0.038,-0.021 -0.0816,-0.032 -0.125,-0.031 z"/></g></svg>