<svg xmlns="http://www.w3.org/2000/svg" xmlns:svg="http://www.w3.org/2000/svg" id="svg4682" width="48" height="48" version="1.1"><metadata id="metadata4687"/><g id="layer1" transform="translate(0,-1004.3622)"><path style="color:#000;display:inline;overflow:visible;visibility:visible;fill:#757575;fill-opacity:1;fill-rule:nonzero;stroke:none;stroke-width:1;marker:none;enable-background:accumulate" id="path8013" d="m 17.4375,1011.5542 c -0.241361,0.02 -0.448355,0.112 -0.6875,0.25 l -1.75,1 -1.75,1 c -0.95658,0.5522 -0.99766,1.6292 -0.6875,2.6895 l 0.8125,2.8105 c -1.106997,1.292 -1.982372,2.739 -2.5625,4.375 L 8,1024.3667 c -1.07318,0.2615 -2,0.8955 -2,2 v 2 2 c 0,1.1047 0.92684,1.7387 2,2 l 2.8125,0.6875 c 0.580128,1.636 1.455503,3.083 2.5625,4.375 l -0.8125,2.8145 c -0.3102,1.0601 -0.26908,2.1333 0.6875,2.6855 l 1.75,1 1.75,1 c 0.95658,0.5524 1.9245,0.1126 2.6875,-0.6855 l 2.0625,-2.127 c 0.81388,0.1472 1.643681,0.25 2.5,0.25 0.856316,0 1.686123,-0.1027 2.5,-0.25 l 2.0625,2.127 c 0.763,0.7988 1.73092,1.2379 2.6875,0.6855 l 1.75,-1 1.75,-1 c 0.95658,-0.5522 0.99766,-1.6254 0.6875,-2.6855 l -0.8125,-2.8145 c 1.106997,-1.292 1.982371,-2.739 2.5625,-4.375 L 40,1032.3667 c 1.07318,-0.2613 2,-0.8953 2,-2 v -2 -2 c 0,-1.1045 -0.92682,-1.7385 -2,-2 l -2.8125,-0.6875 c -0.580129,-1.636 -1.455503,-3.083 -2.5625,-4.375 l 0.8125,-2.8105 c 0.3102,-1.0603 0.26908,-2.1373 -0.6875,-2.6895 l -1.75,-1 -1.75,-1 c -0.95658,-0.5524 -1.92452,-0.1088 -2.6875,0.6895 l -2.0625,2.123 c -0.813877,-0.1472 -1.643684,-0.25 -2.5,-0.25 -0.856319,0 -1.68612,0.1027 -2.5,0.25 l -2.0625,-2.123 c -0.572251,-0.5991 -1.275917,-0.9985 -2,-0.9395 z M 24,1020.3667 c 4.41828,0 8,3.5819 8,8 0,4.4183 -3.58172,8 -8,8 -4.41828,0 -8,-3.5817 -8,-8 0,-4.4181 3.58172,-8 8,-8 z m 0,2.9961 a 5,5 0 0 0 -5,5 5,5 0 0 0 5,5 5,5 0 0 0 5,-5 5,5 0 0 0 -5,-5 z"/></g></svg>