<svg xmlns="http://www.w3.org/2000/svg" xmlns:svg="http://www.w3.org/2000/svg" id="svg4682" width="24" height="24" version="1.1"><metadata id="metadata4687"/><g id="layer1" transform="translate(0,-1028.3622)"><path id="path2990" d="m 12,1031.3622 c -4.970563,0 -9,4.0294 -9,9 l -2,0 2,2 0.3125,0.3125 0.6875,0.6875 1.25,-1.25 0.75,-0.75 1,-1 -2,0 c 0,-3.866 3.134007,-7 7,-7 3.865993,0 7,3.134 7,7 0,3.866 -3.134007,7 -7,7 -2.197004,0 -4.131408,-1.0095 -5.40625,-2.5937 l -1.4375,1.4375 c 1.646865,1.9325 4.102495,3.1562 6.84375,3.1562 4.970563,0 9,-4.0294 9,-9 0,-4.9706 -4.029437,-9 -9,-9 z m -1,4 0,4 0,0.5938 0,0.8125 2.40625,2.4062 1.4375,-1.4062 -1.84375,-1.8438 0,-4.5625 -2,0 z" style="color:#000;fill:#757575;fill-opacity:1;fill-rule:nonzero;stroke:none;stroke-width:1;marker:none;visibility:visible;display:inline;overflow:visible;enable-background:accumulate"/></g></svg>