<svg xmlns="http://www.w3.org/2000/svg" xmlns:svg="http://www.w3.org/2000/svg" id="svg3428" width="20" height="20" version="1.1"><metadata id="metadata3433"/><g id="layer1" transform="translate(0,-1032.3622)"><path id="path6413" d="m 100,56.362183 c 0,5.522847 -4.477153,10 -10,10 -5.522847,0 -10,-4.477153 -10,-10 0,-5.522848 4.477153,-10 10,-10 5.522847,0 10,4.477152 10,10 z" transform="matrix(-0.8,0,0,-0.8,82,1087.452)" style="color:#000;fill:#fecb65;fill-opacity:1;fill-rule:nonzero;stroke:none;stroke-width:.1;marker:none;visibility:visible;display:inline;overflow:visible;enable-background:accumulate"/><path style="color:#000;fill:#ff7200;fill-opacity:1;fill-rule:nonzero;stroke:none;stroke-width:.1;marker:none;visibility:visible;display:inline;overflow:visible;enable-background:accumulate" id="path6415" d="m 14.8,1042.3622 c 0,-0.6628 -0.53728,-1.2 -1.2,-1.2 -0.6628,0 -1.2,0.5374 -1.2,1.2 0,0.6627 0.53728,1.2001 1.2,1.2 0.66272,0 1.2,-0.5373 1.2,-1.2 z m -3.6,10e-5 c 0,-0.6629 -0.53728,-1.2001 -1.2,-1.2001 -0.66272,10e-5 -1.2,0.5372 -1.2,1.2 0,0.6627 0.53728,1.2 1.2,1.2001 0.66272,-10e-5 1.2,-0.5375 1.2,-1.2 z m -3.6,-10e-5 c 0,-0.6628 -0.53728,-1.2 -1.2,-1.1999 -0.66272,-10e-5 -1.2,0.5371 -1.2,1.2 0,0.6625 0.53728,1.1999 1.2,1.1999 0.6628,0 1.2,-0.5373 1.2,-1.2 z"/></g></svg>