<svg xmlns="http://www.w3.org/2000/svg" xmlns:svg="http://www.w3.org/2000/svg" id="svg4682" width="168" height="168" version="1.1"><metadata id="metadata4687"/><g id="layer1" transform="translate(0,-884.3622)"><path style="color:#000;display:inline;overflow:visible;visibility:visible;fill:#757575;fill-opacity:1;fill-rule:nonzero;stroke:none;stroke-width:4.5;marker:none;enable-background:accumulate" id="path6883" d="m 132,896.3622 -71.000604,28.5004 c -5.307488,2.6036 -9.000076,7.9388 -9.000076,14.2504 v 21.25 40.2508 c -1.301928,-0.26 -2.619292,-0.252 -4.000032,-0.252 -11.045768,0 -20.000164,8.954 -20.000164,20 0,11.0464 8.954396,20.0004 20.000164,20.0004 11.045772,0 20.000168,-8.954 20.000168,-20.0004 V 953.861 l 48.000404,-18.9996 v 49.75 c -1.30193,-0.26 -2.6193,-0.244 -4.00003,-0.244 -11.04578,0 -20.000164,8.954 -20.000164,19.9996 0,11.046 8.954394,20 20.000164,20 11.04576,0 20.00016,-8.954 20.00016,-20 v -76.0008 -32.0004 z"/></g></svg>