<svg xmlns="http://www.w3.org/2000/svg" xmlns:svg="http://www.w3.org/2000/svg" id="svg4682" width="24" height="24" version="1.1"><metadata id="metadata4687"/><g id="layer1" transform="translate(0,-1028.3622)"><path style="color:#000;display:inline;overflow:visible;visibility:visible;opacity:1;fill:#bdbdbd;fill-opacity:1;fill-rule:nonzero;stroke:none;stroke-width:1.77165353;stroke-linecap:round;stroke-linejoin:round;stroke-miterlimit:4;stroke-dasharray:none;stroke-dashoffset:0;stroke-opacity:1;marker:none;enable-background:accumulate" id="path7421" d="m 13,1032.3622 c -2.20914,0 -4,1.7909 -4,4 0,2.2091 1.79086,4 4,4 2.20914,0 4,-1.7909 4,-4 0,-2.2091 -1.79086,-4 -4,-4 z m -8.5,3.5028 c -0.831,0 -1.5,0.669 -1.5,1.5 l 0,3 c 0,0.831 0.669,1.5 1.5,1.5 0.831,0 1.5,-0.669 1.5,-1.5 l 0,-3 c 0,-0.831 -0.669,-1.5 -1.5,-1.5 z m -3.50000001,4.4981 C 1.002,1042.1017 2.27918,1043.5756 4,1043.824 l 0,4.5382 1,0 0,-4.5402 c 1.72008,-0.2482 2.99746,-1.721 3,-3.4589 l -1,0 c 0,1.3807 -1.11929,2.5 -2.5,2.5 -1.38071,0 -2.5,-1.1193 -2.5,-2.5 z M 13,1042.3895 c -3.5,0 -7,1.3277 -7,3.9727 l 0,2 14,0 0,-2 c 0,-2.6537 -3.5,-3.9748 -7,-3.9727 z"/></g></svg>