<svg xmlns="http://www.w3.org/2000/svg" xmlns:svg="http://www.w3.org/2000/svg" id="svg4682" width="24" height="24" version="1.1"><metadata id="metadata4687"/><g id="layer1" transform="translate(0,-1028.3622)"><path style="color:#000;display:inline;overflow:visible;visibility:visible;opacity:1;fill:#bdbdbd;fill-opacity:1;fill-rule:nonzero;stroke:none;stroke-width:1.77165353;stroke-linecap:round;stroke-linejoin:round;stroke-miterlimit:4;stroke-dasharray:none;stroke-dashoffset:0;stroke-opacity:1;marker:none;enable-background:accumulate" id="path7165" d="m 17.75,1032.3628 c -2.87091,1.2764 -5.54576,2.4607 -8.25781,3.6699 -0.74219,0.331 -0.74219,1.3301 -0.74219,1.3301 l 0,6.5156 c -0.083,-0.01 -0.16644,-0.015 -0.25,-0.016 -1.24264,0 -2.25,1.0074 -2.25,2.25 0,1.2427 1.00736,2.25 2.25,2.25 1.24264,0 2.25,-1.0073 2.25,-2.25 l 0,-7.75 5,-2 0,5.7656 c -0.083,-0.01 -0.16644,-0.015 -0.25,-0.016 -1.24264,0 -2.25,1.0074 -2.25,2.25 0,1.2427 1.00736,2.25 2.25,2.25 1.24264,0 2.25,-1.0073 2.25,-2.25 l 0,-12 z"/></g></svg>