<svg xmlns="http://www.w3.org/2000/svg" xmlns:svg="http://www.w3.org/2000/svg" id="svg4682" width="24" height="24" version="1.1"><metadata id="metadata4687"/><g id="layer1" transform="translate(0,-1028.3622)"><path style="fill:#fff;fill-opacity:1" id="path6982" d="m 10.36719,1032.3622 c -0.19,0 -0.4025899,0.023 -0.5546899,0.1367 -0.3008,0.2252 -0.42166,0.5865 -0.68359,1.3672 -0.26193,0.7807 -0.27344,0.8203 -0.27344,0.8203 1.09405,0.547 1.8875299,0.5982 3.0214799,0 0,0 -0.0125,-0.043 -0.27343,-0.8203 -0.26092,-0.7777 -0.38099,-1.1366 -0.6836,-1.3672 -0.15112,-0.1151 -0.36273,-0.1367 -0.55273,-0.1367 z m -2.46875,5.1953 -1.09375,3.2832 -0.002,0.01 c 0.005,-10e-4 0.009,0 0.0137,0 1.02141,0.8853 2.2793501,1.3283 3.53906,1.332 a 7,7 0 0 1 2.80078,-3.6562 l -0.32031,-0.9609 -0.002,0 c -1.65912,1.2388 -3.2944699,1.229 -4.93554,0 z M 17,1039.3622 a 5,5 0 0 0 -5,5 5,5 0 0 0 5,5 5,5 0 0 0 4.89453,-4 l -1.54101,0 a 3.5,3.5 0 0 1 -3.35352,2.5 3.5,3.5 0 0 1 -3.5,-3.5 3.5,3.5 0 0 1 3.5,-3.5 3.5,3.5 0 0 1 2.47266,1.0273 L 18,1043.3622 l 2.35156,0 1.54688,0 0.10156,0 0,-4 -1.4668,1.4668 A 5,5 0 0 0 17,1039.3622 Z m -11.8964799,3.1191 c -0.36363,0 -0.70233,0.2744 -0.8086,0.6368 l -0.63672,2.1679 c -0.20814,0.7111 -0.41394,1.4159 -0.62304,2.1309 -0.0875,0.2988 -5.4e-4,0.52 0.14062,0.6719 0.0874,0.094 0.19556,0.1617 0.29492,0.207 0.0994,0.044 0.16777,0.066 0.2461,0.066 0.1826,0 3.3716599,0 6.6503899,0 0.44211,0 0.46481,-10e-5 0.89648,0 a 7,7 0 0 1 -1.13867,-2.7031 c -1.5902599,-0.049 -3.14444,-0.566 -4.1308599,-1.5313 -0.20629,-0.2018 -0.13681,-0.41 0,-0.8203 0.0912,-0.2735 0.2636699,-0.8242 0.2636699,-0.8242 l -1.1542899,0 z"/></g></svg>