<svg xmlns="http://www.w3.org/2000/svg" xmlns:svg="http://www.w3.org/2000/svg" id="svg3428" width="20" height="20" version="1.1"><metadata id="metadata3433"/><g id="layer1" transform="translate(0,-1032.3622)"><g id="g7438" transform="matrix(0.8,0,0,0.8,-274.8,984.47245)"><path id="path5707-9" d="m 366,72.362183 c 0,5.522848 -4.47716,10 -10,10 -5.52284,0 -10,-4.477152 -10,-10 0,-5.522846 4.47716,-10 10,-10 5.52284,0 10,4.477154 10,10 z" style="fill:#f80;fill-opacity:.85098039;stroke:none"/><path id="path5709-5" d="m 356,66.375 c -3.3137,0 -6,2.686292 -6,6 0,3.313708 2.6863,6 6,6 l 0,-1 c -2.76142,0 -5,-2.238576 -5,-5 0,-2.761424 2.23858,-5 5,-5 2.76142,0 5,2.238576 5,5 0,0.500748 -0.0815,0.981462 -0.21875,1.4375 l 0.78125,0.78125 C 361.83726,73.906884 362,73.159978 362,72.375 c 0,-3.313708 -2.6863,-6 -6,-6 z m -3.1875,2.8125 C 351.99816,70.00184 351.5,71.13236 351.5,72.375 l 2.5,0 c 0,-0.55065 0.23371,-1.075828 0.59375,-1.4375 l -1.78125,-1.75 z M 356,70.875 c -0.82842,0 -1.5,0.671572 -1.5,1.5 0,0.828428 0.67158,1.5 1.5,1.5 0.82842,0 1.5,-0.671572 1.5,-1.5 0,-0.828428 -0.67158,-1.5 -1.5,-1.5 z" style="color:#000;fill:#eee;fill-opacity:1;fill-rule:nonzero;stroke:none;stroke-width:.5;marker:none;visibility:visible;display:inline;overflow:visible;enable-background:accumulate"/><path id="path7406" d="m 359,73.362183 3,3 -6,0 z" style="fill:#eee;fill-opacity:1;stroke:none"/><path id="rect7409" d="m 357,76.375 0,2 1.5,0 0,-1.5 1,0 0,1.5 1.5,0 0,-2 -4,0 z" style="color:#000;fill:#eee;fill-opacity:1;fill-rule:nonzero;stroke:none;stroke-width:.5;marker:none;visibility:visible;display:inline;overflow:visible;enable-background:accumulate"/><path id="path7418" d="m 356,66.375 c -3.31371,0 -6,2.686292 -6,6 0,3.313708 2.68629,6 6,6 l 0,-1 c -2.76142,0 -5,-2.238576 -5,-5 0,-2.588835 1.97872,-4.74395 4.5,-5 0.16809,-0.01707 0.32741,0 0.5,0 2.76142,0 5,2.238576 5,5 0,0.528122 -0.0982,1.022128 -0.25,1.5 l 0.8125,0.8125 C 361.8566,73.979303 362,73.18962 362,72.375 c 0,-3.313708 -2.68629,-6 -6,-6 z" style="color:#000;fill:#eee;fill-opacity:1;fill-rule:nonzero;stroke:none;stroke-width:.5;marker:none;visibility:visible;display:inline;overflow:visible;enable-background:accumulate"/></g></g></svg>