<svg xmlns="http://www.w3.org/2000/svg" xmlns:svg="http://www.w3.org/2000/svg" id="svg4682" width="24" height="24" version="1.1"><metadata id="metadata4687"/><g id="layer1" transform="translate(0,-1028.3622)"><path style="color:#000;display:inline;overflow:visible;visibility:visible;fill:#fafafa;fill-opacity:1;fill-rule:nonzero;stroke:none;stroke-width:.5;marker:none;enable-background:accumulate" id="path6651-8" d="m 4.0000002,1032.3622 -1.0606,1.0606 1.0606,1.0605 0,1.8789 0,8 c 0,1.108 0.8919,2 2,2 l 9.8788998,0 3.0605,3.0606 1.0606,-1.0606 -2,-2 -2,-2 -7.9999998,-8 -2,-2 -2,-2 z m 4,2 1.9999996,2 8.0000002,0 0,8 1.416,1.416 0.584,0.584 0,-2 0,-8 c 0,-1.108 -0.892,-2 -2,-2 l -9.9999998,0 z m -2,2.1211 7.8788998,7.8789 -7.8788998,0 0,-7.8789 z"/></g></svg>