<svg xmlns="http://www.w3.org/2000/svg" xmlns:svg="http://www.w3.org/2000/svg" id="svg4682" width="24" height="24" version="1.1"><metadata id="metadata4687"/><g id="layer1" transform="translate(0,-1028.3622)"><path style="color:#000;fill:#fafafa;fill-opacity:1;fill-rule:nonzero;stroke:none;stroke-width:1;marker:none;visibility:visible;display:inline;overflow:visible;enable-background:accumulate" id="path5014" d="M 4 5 L 4 7 L 15 7 L 15 5 L 4 5 z M 17 5 L 17 14.0625 C 16.837256 14.029198 16.672589 14 16.5 14 C 15.119288 14 14 15.119288 14 16.5 C 14 17.880712 15.119288 19 16.5 19 C 17.880712 19 19 17.880712 19 16.5 L 19 7 L 21 7 L 21 5 L 19 5 L 17 5 z M 4 9 L 4 11 L 15 11 L 15 9 L 4 9 z M 4 13 L 4 15 L 12 15 L 12 13 L 4 13 z" transform="translate(0,1028.3622)"/></g></svg>