<svg xmlns="http://www.w3.org/2000/svg" xmlns:svg="http://www.w3.org/2000/svg" id="svg4682" width="24" height="24" version="1.1"><metadata id="metadata4687"/><g id="layer1" transform="translate(0,-1028.3622)"><g id="g8420" transform="translate(-540,553.00002)" style="fill:#ffb54c;fill-opacity:1"><rect id="rect8370" width="7" height="5" x="547" y="486.362" style="color:#000;display:inline;overflow:visible;visibility:visible;opacity:1;fill:#ffb54c;fill-opacity:1;fill-rule:nonzero;stroke:none;stroke-width:0;stroke-linecap:round;stroke-linejoin:round;stroke-miterlimit:4;stroke-dasharray:none;stroke-dashoffset:0;stroke-opacity:1;marker:none;enable-background:accumulate"/><path id="path7904-2" d="m 545.5,480.36218 c -0.831,0 -1.5,0.669 -1.5,1.5 l 1.5,0 0,-1.5 z m 1.44336,0 0,1.5 1.4453,0 0,-1.5 -1.4453,0 z m 2.88867,0 0,1.5 1.44531,0 0,-1.5 -1.44531,0 z m 2.89063,0 0,1.5 1.44531,0 0,-1.5 -1.44531,0 z m 2.88867,0 0,1.5 1.44531,0 0,-1.5 -1.44531,0 z m 2.88867,0 0,1.5 1.5,0 c 0,-0.831 -0.669,-1.5 -1.5,-1.5 z m -14.5,3.07031 0,1.57227 1.5,0 0,-1.57227 -1.5,0 z m 14.5,0 0,1.57227 1.5,0 0,-1.57227 -1.5,0 z m -14.5,3.14258 0,1.57422 1.5,0 0,-1.57422 -1.5,0 z m 14.5,0 0,1.57422 1.5,0 0,-1.57422 -1.5,0 z m -14.5,3.14453 0,1.57227 1.5,0 0,-1.57227 -1.5,0 z m 14.5,0 0,1.57227 1.5,0 0,-1.57227 -1.5,0 z m -14.5,3.14258 c 0,0.831 0.669,1.5 1.5,1.5 l 0,-1.5 -1.5,0 z m 2.94336,0 0,1.5 1.44531,0 0,-1.5 -1.44531,0 z m 2.88867,0 0,1.5 1.44531,0 0,-1.5 -1.44531,0 z m 2.89063,0 0,1.5 1.44531,0 0,-1.5 -1.44531,0 z m 2.88867,0 0,1.5 1.44531,0 0,-1.5 -1.44531,0 z m 2.88867,0 0,1.5 c 0.831,0 1.5,-0.669 1.5,-1.5 l -1.5,0 z" style="color:#000;display:inline;overflow:visible;visibility:visible;opacity:1;fill:#ffb54c;fill-opacity:1;fill-rule:nonzero;stroke:none;stroke-width:0;stroke-linecap:round;stroke-linejoin:round;stroke-miterlimit:4;stroke-dasharray:none;stroke-dashoffset:0;stroke-opacity:1;marker:none;enable-background:accumulate"/></g></g></svg>