<svg xmlns="http://www.w3.org/2000/svg" xmlns:svg="http://www.w3.org/2000/svg" id="svg4682" width="24" height="24" version="1.1"><metadata id="metadata4687"/><g id="layer1" transform="translate(0,-1028.3622)"><g id="g5269" transform="translate(-64,740.00002)" style="font-size:16px;font-style:normal;font-variant:normal;font-weight:400;font-stretch:normal;line-height:125%;letter-spacing:0;word-spacing:0;fill:#ffb54c;fill-opacity:1;stroke:none;font-family:Roboto;-inkscape-font-specification:Roboto"><path style="font-size:6px;fill:#ffb54c;fill-opacity:1" id="path5271" d="M 17 2 L 17 5 L 7 5 L 5 5 L 5 11 L 7 11 L 7 7 L 17 7 L 17 10 L 21 6 L 17 2 z M 12.75 9.5 L 10.25 10.25 L 10.25 11 L 11.25 11 L 11.25 15 L 12.75 15 L 12.75 9.5 z M 17 13 L 17 17 L 7 17 L 7 14 L 3 18 L 7 22 L 7 19 L 17 19 L 19 19 L 19 13 L 17 13 z" transform="translate(64,288.36218)"/></g></g></svg>