<svg xmlns="http://www.w3.org/2000/svg" xmlns:svg="http://www.w3.org/2000/svg" id="svg3428" width="20" height="20" version="1.1"><metadata id="metadata3433"/><g id="layer1" transform="translate(0,-1032.3622)"><g id="g4748" transform="translate(1,-2.0000174)"><circle id="circle8243" cx="9" cy="1044.363" r="8" style="fill:#f80;fill-opacity:.8509804;stroke:none;stroke-width:.80000001"/><path id="path8245" d="m 5,1040.3622 c -0.554,0 -1,0.446 -1,1 v 1 h 1 v -1 h 8 v 6 h -3 v 1 h 3 c 0.554,0 1,-0.446 1,-1 v -6 c 0,-0.554 -0.446,-1 -1,-1 z" style="color:#000;display:inline;overflow:visible;visibility:visible;opacity:1;vector-effect:none;fill:#eee;fill-opacity:1;fill-rule:evenodd;stroke:none;stroke-width:2;stroke-linecap:butt;stroke-linejoin:round;stroke-miterlimit:4;stroke-dasharray:none;stroke-dashoffset:4.19999981;stroke-opacity:1;marker:none;enable-background:accumulate"/><path id="path8247" d="m 4,1043.3622 v 1 a 4,4 0 0 1 4,4 h 1 a 5,5 0 0 0 -5,-5 z m 0,2 v 1 a 2,2 0 0 1 2,2 h 1 a 3,3 0 0 0 -3,-3 z m 0,2 v 1 h 1 a 1,1 0 0 0 -1,-1 z" style="color:#000;display:inline;overflow:visible;visibility:visible;opacity:1;vector-effect:none;fill:#eee;fill-opacity:1;fill-rule:evenodd;stroke:none;stroke-width:2;stroke-linecap:butt;stroke-linejoin:round;stroke-miterlimit:4;stroke-dasharray:none;stroke-dashoffset:4.19999981;stroke-opacity:1;marker:none;enable-background:accumulate"/></g></g></svg>