<svg xmlns="http://www.w3.org/2000/svg" xmlns:svg="http://www.w3.org/2000/svg" id="svg4682" width="24" height="24" version="1.1"><metadata id="metadata4687"/><g id="layer1" transform="translate(0,-1028.3622)"><path id="path6717-1" d="m 18,1032.3603 c -1.1046,0 -2,0.8954 -2,2 0,1.1045 0.8954,2 2,2 1.1046,0 2,-0.8955 2,-2 0,-1.1046 -0.8954,-2 -2,-2 z m -9,7.0019 -1,0.9981 0,3 -4,0 0,2 6,0 0,-3 2,2 0,4.0019 2,0 0,-4 5,5 1,-1 -7.5,-7.4981 -2.5,-2.5 -1,-1 -1.416,-1.4159 -3.584,-3.584 0,0 -1,1 z m 0.1699,-5.0018 -0.5859,0.5859 1.416,1.414 2,0 -1,1.0019 2.5,2.5 0.1894,-0.1913 0.5625,-0.5625 c 1.0059,3.2454 4.7481,3.2519 4.7481,3.2519 l 0,-2 c -2.9687,0 -3,-3 -3,-3 0,-2.9999 -3,-2.9999 -3,-2.9999 z" style="fill:#ffb54c;fill-opacity:1;fill-rule:evenodd;stroke:none;stroke-width:1px;stroke-linecap:butt;stroke-linejoin:miter;stroke-opacity:1"/></g></svg>