<svg xmlns="http://www.w3.org/2000/svg" xmlns:svg="http://www.w3.org/2000/svg" id="svg4682" width="24" height="24" version="1.1"><metadata id="metadata4687"/><g id="layer1" transform="translate(0,-1028.3622)"><path id="path6721" d="m 7.75,1029.8934 -4.09375,2.875 1.125,1.6563 4.09375,-2.875 -1.125,-1.6563 z m 8.5,0 -1.125,1.6563 4.09375,2.875 1.125,-1.6563 -4.09375,-2.875 z m -4.25,2.4688 c -4.41828,0 -8,3.5817 -8,8 0,4.4182 3.58172,8 8,8 4.41828,0 8,-3.5818 8,-8 0,-4.4183 -3.58172,-8 -8,-8 z m 0,2 c 3.31371,0 6,2.6862 6,6 0,3.3137 -2.68629,6 -6,6 -3.31371,0 -6,-2.6863 -6,-6 0,-3.3138 2.68629,-6 6,-6 z m -3,2 0,2 4,0 -4,4 0,2 6,0 0,-2 -4,0 4,-4 0,-2 -6,0 z" style="color:#000;fill:#f80;fill-opacity:1;fill-rule:nonzero;stroke:none;stroke-width:.5;marker:none;visibility:visible;display:inline;overflow:visible;enable-background:accumulate"/></g></svg>