<svg xmlns="http://www.w3.org/2000/svg" xmlns:svg="http://www.w3.org/2000/svg" id="svg4682" width="24" height="24" version="1.1"><metadata id="metadata4687"/><g id="layer1" transform="translate(0,-1028.3622)"><path style="fill:#707070;fill-opacity:1;fill-rule:evenodd;stroke:none;stroke-width:1px;stroke-linecap:butt;stroke-linejoin:miter;stroke-opacity:1" id="path6751-6" d="m 18,1032.3612 c -1.1046,0 -2,0.8954 -2,2 0,1.1046 0.8954,2 2,2 1.1046,0 2,-0.8954 2,-2 0,-1.1046 -0.8954,-2 -2,-2 z m -8.8301,2 -2.584,2.5859 1.4141,1.4141 2,-2 2,0 -4,4 0,3 -4,0 0,2 6,0 0,-3 2,2 0,4.002 2,0 0,-5 -2,-2 0.5625,-0.5625 0.5625,-0.5625 0.5644,-0.5645 0.5625,-0.5625 c 1.0059,3.2454 4.7481,3.252 4.7481,3.252 l 0,-2 c -2.9687,0 -3,-3 -3,-3 0,-3 -3,-3 -3,-3 l -3.8301,0 z"/></g></svg>