<svg xmlns="http://www.w3.org/2000/svg" xmlns:svg="http://www.w3.org/2000/svg" id="svg4682" width="24" height="24" version="1.1"><metadata id="metadata4687"/><g id="layer1" transform="translate(0,-1028.3622)"><path style="color:#000;fill:#fafafa;fill-opacity:1;fill-rule:nonzero;stroke:none;stroke-width:.5;marker:none;visibility:visible;display:inline;overflow:visible;enable-background:accumulate" id="rect4929" d="m 6,1032.3622 c -1.108,0 -2,0.892 -2,2 l 0,12 c 0,1.108 0.892,2 2,2 l 12,0 c 1.108,0 2,-0.892 2,-2 l 0,-10 -4,-4 -10,0 z m 0,2 9,0 0,4 -9,0 0,-4 z m 6,6 c 1.65685,0 3,1.3432 3,3 0,1.6569 -1.34315,3 -3,3 -1.65685,0 -3,-1.3431 -3,-3 0,-1.6568 1.34315,-3 3,-3 z"/></g></svg>