<svg xmlns="http://www.w3.org/2000/svg" xmlns:svg="http://www.w3.org/2000/svg" id="svg4682" width="24" height="24" version="1.1"><metadata id="metadata4687"/><g id="layer1" transform="translate(0,-1028.3622)"><path id="path6681-2" d="m 8,1034.3622 c -1.108,0 -2,0.892 -2,2 l 0,6 -2,0 0,-2 -3,3 3,3 0,-2 2,0 c 0,1.108 0.892,2 2,2 l 8,0 c 1.108,0 2,-0.892 2,-2 l 2,0 0,2 3,-3 -3,-3 0,2 -2,0 0,-6 c 0,-1.108 -0.892,-2 -2,-2 l -8,0 z m -1,7.002 1.6504,0 0,1.5 -1.6504,0 0,-1.5 z m 3,0 7,0 0,1.5 -7,0 0,-1.5 z m -3,2.5 6.5,0 0,1.5 -6.5,0 0,-1.5 z m 8,0 2,0 0,1.5 -2,0 0,-1.5 z" style="color:#000;display:inline;overflow:visible;visibility:visible;opacity:1;fill:#ffb54c;fill-opacity:1;fill-rule:nonzero;stroke:none;stroke-width:1;stroke-linecap:round;stroke-linejoin:round;stroke-miterlimit:3.70000005;stroke-dasharray:none;stroke-dashoffset:0;stroke-opacity:1;marker:none;enable-background:accumulate"/></g></svg>