<svg xmlns="http://www.w3.org/2000/svg" xmlns:svg="http://www.w3.org/2000/svg" id="svg4682" width="48" height="48" version="1.1"><metadata id="metadata4687"/><g id="layer1" transform="translate(0,-1004.3622)"><g id="g5111" transform="matrix(2.000017,0,0,2.000017,-56.00085,-1026.3795)" style="fill:#757575;fill-opacity:1"><path style="color:#000;display:inline;overflow:visible;visibility:visible;opacity:1;fill:#757575;fill-opacity:1;fill-rule:nonzero;stroke:none;stroke-width:.5;stroke-linecap:round;stroke-linejoin:round;stroke-miterlimit:4;stroke-dasharray:none;stroke-dashoffset:0;stroke-opacity:1;marker:none;enable-background:accumulate" id="path7483-9-6" d="m 35.77778,1019.3622 c -0.98489,0 -1.77778,0.7929 -1.77778,1.7778 v 8.9445 c 0,0.9849 0.79289,1.7777 1.77778,1.7777 h 12.44444 c 0.98489,0 1.77778,-0.7928 1.77778,-1.7777 v -8.9445 -1.7778 h -1.77778 -1.11111 l 1.55556,3.1111 H 46 l -1.55556,-3.1111 h -1.33333 l 1.55556,3.1111 H 42 l -1.55556,-3.1111 h -1.33333 l 1.55556,3.1111 H 38 l -1.55556,-3.1111 z"/><path style="fill:#757575;fill-opacity:1;stroke:none" id="path6725-0" d="m 30.00017,1022.3622 v 11 c 0,1.106 0.89192,2.0004 1.99983,2 h 11.00017 c 1.1079,0 1.99983,-0.894 1.99983,-2 H 32 v -11 z"/></g></g></svg>