<svg xmlns="http://www.w3.org/2000/svg" xmlns:svg="http://www.w3.org/2000/svg" id="svg5450" width="616" height="474" version="1.1" viewBox="0 0 162.983 125.412"><metadata id="metadata5447"/><g id="layer1" transform="translate(-23.056558,-28.901441)"><rect style="color:#000;display:inline;overflow:visible;visibility:visible;opacity:1;vector-effect:none;fill:#f80;fill-opacity:1;fill-rule:nonzero;stroke:none;stroke-width:.02419828;stroke-linecap:butt;stroke-linejoin:round;stroke-miterlimit:4;stroke-dasharray:none;stroke-dashoffset:4.19999981;stroke-opacity:1;marker:none;enable-background:accumulate" id="rect4877" width="77.258" height="34.925" x="24.644" y="43.718"/><rect id="rect4867" width="76.2" height="16.933" x="25.173" y="61.181" style="color:#000;display:inline;overflow:visible;visibility:visible;opacity:1;vector-effect:none;fill:#fafafa;fill-opacity:1;fill-rule:nonzero;stroke:none;stroke-width:.02340641;stroke-linecap:butt;stroke-linejoin:round;stroke-miterlimit:4;stroke-dasharray:none;stroke-dashoffset:4.19999981;stroke-opacity:1;marker:none;enable-background:accumulate"/><rect style="color:#000;display:inline;overflow:visible;visibility:visible;opacity:1;vector-effect:none;fill:#eee;fill-opacity:1;fill-rule:nonzero;stroke:none;stroke-width:.02645833;stroke-linecap:butt;stroke-linejoin:round;stroke-miterlimit:4;stroke-dasharray:none;stroke-dashoffset:4.19999981;stroke-opacity:1;marker:none;enable-background:accumulate" id="rect4875" width="55.033" height="12.7" x="25.173" y="63.297"/><rect style="color:#000;display:inline;overflow:visible;visibility:visible;opacity:1;vector-effect:none;fill:#424242;fill-opacity:1;fill-rule:nonzero;stroke:none;stroke-width:.02340641;stroke-linecap:butt;stroke-linejoin:round;stroke-miterlimit:4;stroke-dasharray:none;stroke-dashoffset:4.19999981;stroke-opacity:1;marker:none;enable-background:accumulate" id="rect4670" width="76.2" height="16.933" x="25.173" y="44.247"/><text style="font-style:normal;font-variant:normal;font-weight:400;font-stretch:normal;font-size:10.58329105px;line-height:125%;font-family:Raleway;-inkscape-font-specification:'Raleway, Normal';font-variant-ligatures:normal;font-variant-caps:normal;font-variant-numeric:normal;font-feature-settings:normal;text-align:start;letter-spacing:0;word-spacing:0;writing-mode:lr-tb;text-anchor:start;opacity:1;fill:#fafafa;fill-opacity:1;stroke:none;stroke-width:.26458228px;stroke-linecap:butt;stroke-linejoin:miter;stroke-opacity:1" id="text4668" x="29.095" y="54.319" xml:space="preserve"><tspan id="tspan4666" x="29.095" y="54.319" style="font-style:normal;font-variant:normal;font-weight:400;font-stretch:normal;font-size:4.93888855px;font-family:Roboto;-inkscape-font-specification:Roboto;fill:#fafafa;fill-opacity:1;stroke-width:.26458228px">Open from</tspan></text><rect style="color:#000;display:inline;overflow:visible;visibility:visible;opacity:1;vector-effect:none;fill:#9e9e9e;fill-opacity:1;fill-rule:nonzero;stroke:none;stroke-width:.03703396;stroke-linecap:butt;stroke-linejoin:round;stroke-miterlimit:4;stroke-dasharray:none;stroke-dashoffset:4.19999981;stroke-opacity:1;marker:none;enable-background:accumulate" id="rect4817" width="25.4" height="16.933" x="75.973" y="61.181"/><rect style="color:#000;display:inline;overflow:visible;visibility:visible;opacity:1;vector-effect:none;fill:#212121;fill-opacity:1;fill-rule:nonzero;stroke:none;stroke-width:.02645833;stroke-linecap:butt;stroke-linejoin:round;stroke-miterlimit:4;stroke-dasharray:none;stroke-dashoffset:4.19999981;stroke-opacity:1;marker:none;enable-background:accumulate" id="rect4819" width="25.4" height="16.933" x="75.973" y="44.247"/><path style="color:#000;display:inline;overflow:visible;visibility:visible;fill:#e0e0e0;fill-opacity:1;fill-rule:nonzero;stroke:none;stroke-width:.1984375;marker:none;enable-background:accumulate" id="path4099-5" d="m 96.346116,50.332684 c 0,-0.43839 -0.35536,-0.79375 -0.79375,-0.79375 -0.43839,0 -0.79375,0.35536 -0.79375,0.79375 0,0.43839 0.35536,0.79375 0.79375,0.79375 0.43839,0 0.79375,-0.35536 0.79375,-0.79375 z m 0,2.38125 c 0,-0.43839 -0.35536,-0.79375 -0.79375,-0.79375 -0.43839,0 -0.79375,0.35536 -0.79375,0.79375 0,0.43839 0.35536,0.79375 0.79375,0.79375 0.43839,0 0.79375,-0.35536 0.79375,-0.79375 z m 0,2.38125 c 0,-0.43839 -0.35536,-0.79375 -0.79375,-0.79375 -0.43839,0 -0.79375,0.35536 -0.79375,0.79375 0,0.43839 0.35536,0.79375 0.79375,0.79375 0.43839,0 0.79375,-0.35536 0.79375,-0.79375 z"/><path id="path4869" d="m 32.049796,67.530544 c -1.4605,0 -2.64324,1.18534 -2.64324,2.64584 0,1.4605 1.18274,2.64583 2.64324,2.64583 1.46315,0 2.64843,-1.18533 2.64843,-2.64583 0,-1.4605 -1.18528,-2.64584 -2.64843,-2.64584 z m 0.003,0.52917 c 1.16946,0 2.11667,0.94721 2.11667,2.11667 0,1.16945 -0.94721,2.11666 -2.11667,2.11666 -1.16946,0 -2.11667,-0.94721 -2.11667,-2.11666 0,-1.16946 0.94721,-2.11667 2.11667,-2.11667 z m -0.26458,0.79375 v 1.5875 l 1.38906,0.83354 0.19844,-0.32557 -1.19063,-0.70641 v -1.38906 z" style="fill:#424242;fill-opacity:1;stroke-width:.26458332"/><text id="text4873" x="39.678" y="71.962" xml:space="preserve" style="font-style:normal;font-variant:normal;font-weight:400;font-stretch:normal;font-size:10.58329105px;line-height:125%;font-family:Raleway;-inkscape-font-specification:'Raleway, Normal';font-variant-ligatures:normal;font-variant-caps:normal;font-variant-numeric:normal;font-feature-settings:normal;text-align:start;letter-spacing:0;word-spacing:0;writing-mode:lr-tb;text-anchor:start;opacity:1;fill:#424242;fill-opacity:1;stroke:none;stroke-width:.26458228px;stroke-linecap:butt;stroke-linejoin:miter;stroke-opacity:1"><tspan style="font-style:normal;font-variant:normal;font-weight:400;font-stretch:normal;font-size:4.23333311px;font-family:Roboto;-inkscape-font-specification:Roboto;fill:#424242;fill-opacity:1;stroke-width:.26458228px" id="tspan4871" x="39.678" y="71.962">Recent</tspan></text><rect id="rect4903" width="77.258" height="34.925" x="107.194" y="43.718" style="color:#000;display:inline;overflow:visible;visibility:visible;opacity:1;vector-effect:none;fill:#f80;fill-opacity:1;fill-rule:nonzero;stroke:none;stroke-width:.02419828;stroke-linecap:butt;stroke-linejoin:round;stroke-miterlimit:4;stroke-dasharray:none;stroke-dashoffset:4.19999981;stroke-opacity:1;marker:none;enable-background:accumulate"/><rect style="color:#000;display:inline;overflow:visible;visibility:visible;opacity:1;vector-effect:none;fill:#fafafa;fill-opacity:1;fill-rule:nonzero;stroke:none;stroke-width:.02340641;stroke-linecap:butt;stroke-linejoin:round;stroke-miterlimit:4;stroke-dasharray:none;stroke-dashoffset:4.19999981;stroke-opacity:1;marker:none;enable-background:accumulate" id="rect4905" width="76.2" height="16.933" x="107.723" y="61.181"/><rect id="rect4909" width="76.2" height="16.933" x="107.723" y="44.247" style="color:#000;display:inline;overflow:visible;visibility:visible;opacity:1;vector-effect:none;fill:#424242;fill-opacity:1;fill-rule:nonzero;stroke:none;stroke-width:.02340641;stroke-linecap:butt;stroke-linejoin:round;stroke-miterlimit:4;stroke-dasharray:none;stroke-dashoffset:4.19999981;stroke-opacity:1;marker:none;enable-background:accumulate"/><text id="text4913" x="118.524" y="54.319" xml:space="preserve" style="font-style:normal;font-variant:normal;font-weight:400;font-stretch:normal;font-size:10.58329105px;line-height:125%;font-family:Raleway;-inkscape-font-specification:'Raleway, Normal';font-variant-ligatures:normal;font-variant-caps:normal;font-variant-numeric:normal;font-feature-settings:normal;text-align:start;letter-spacing:0;word-spacing:0;writing-mode:lr-tb;text-anchor:start;opacity:1;fill:#fafafa;fill-opacity:1;stroke:none;stroke-width:.26458228px;stroke-linecap:butt;stroke-linejoin:miter;stroke-opacity:1"><tspan style="font-style:normal;font-variant:normal;font-weight:400;font-stretch:normal;font-size:4.93888855px;font-family:Roboto;-inkscape-font-specification:Roboto;fill:#fafafa;fill-opacity:1;stroke-width:.26458228px" id="tspan4911" x="118.524" y="54.319">Recent</tspan></text><rect id="rect4917" width="41.275" height="25.4" x="142.648" y="44.247" style="color:#000;display:inline;overflow:visible;visibility:visible;opacity:1;vector-effect:none;fill:#212121;fill-opacity:1;fill-rule:nonzero;stroke:none;stroke-width:.04130803;stroke-linecap:butt;stroke-linejoin:round;stroke-miterlimit:4;stroke-dasharray:none;stroke-dashoffset:4.19999981;stroke-opacity:1;marker:none;enable-background:accumulate"/><text style="font-style:normal;font-variant:normal;font-weight:400;font-stretch:normal;font-size:4.93888855px;line-height:125%;font-family:Roboto;-inkscape-font-specification:'Roboto, Normal';font-variant-ligatures:normal;font-variant-caps:normal;font-variant-numeric:normal;font-feature-settings:normal;text-align:start;letter-spacing:0;word-spacing:0;writing-mode:lr-tb;text-anchor:start;opacity:1;fill:#e0e0e0;fill-opacity:1;stroke:none;stroke-width:.26458228px;stroke-linecap:butt;stroke-linejoin:miter;stroke-opacity:1" id="text4931" x="144.795" y="54.319" xml:space="preserve"><tspan id="tspan4929" x="144.795" y="54.319" style="font-style:normal;font-variant:normal;font-weight:400;font-stretch:normal;font-size:4.93888855px;font-family:Roboto;-inkscape-font-specification:'Roboto, Normal';font-variant-ligatures:normal;font-variant-caps:normal;font-variant-numeric:normal;font-feature-settings:normal;text-align:start;writing-mode:lr-tb;text-anchor:start;fill:#e0e0e0;fill-opacity:1;stroke-width:.26458228px">Show SD card</tspan></text><text id="text4935" x="144.795" y="63.844" xml:space="preserve" style="font-style:normal;font-variant:normal;font-weight:400;font-stretch:normal;font-size:4.93888855px;line-height:125%;font-family:Roboto;-inkscape-font-specification:'Roboto, Normal';font-variant-ligatures:normal;font-variant-caps:normal;font-variant-numeric:normal;font-feature-settings:normal;text-align:start;letter-spacing:0;word-spacing:0;writing-mode:lr-tb;text-anchor:start;opacity:1;fill:#e0e0e0;fill-opacity:1;stroke:none;stroke-width:.26458228px;stroke-linecap:butt;stroke-linejoin:miter;stroke-opacity:1"><tspan style="font-style:normal;font-variant:normal;font-weight:400;font-stretch:normal;font-size:4.93888855px;font-family:Roboto;-inkscape-font-specification:'Roboto, Normal';font-variant-ligatures:normal;font-variant-caps:normal;font-variant-numeric:normal;font-feature-settings:normal;text-align:start;writing-mode:lr-tb;text-anchor:start;fill:#e0e0e0;fill-opacity:1;stroke-width:.26458228px" id="tspan4933" x="144.795" y="63.844">Show file size</tspan></text><path id="path4-37" d="m 111.02087,54.301484 h 4.7625 v -0.52917 h -4.7625 z m 0,-1.32292 h 4.7625 v -0.52916 h -4.7625 z m 0,-1.85208 v 0.52917 h 4.7625 v -0.52917 z" style="fill:#fafafa;fill-opacity:1;stroke-width:.26458332"/><rect id="rect4943" width="77.258" height="68.792" x="24.644" y="83.935" style="color:#000;display:inline;overflow:visible;visibility:visible;opacity:1;vector-effect:none;fill:#f80;fill-opacity:1;fill-rule:nonzero;stroke:none;stroke-width:.0339613;stroke-linecap:butt;stroke-linejoin:round;stroke-miterlimit:4;stroke-dasharray:none;stroke-dashoffset:4.19999981;stroke-opacity:1;marker:none;enable-background:accumulate"/><rect style="color:#000;display:inline;overflow:visible;visibility:visible;opacity:1;vector-effect:none;fill:#fafafa;fill-opacity:1;fill-rule:nonzero;stroke:none;stroke-width:.04054109;stroke-linecap:butt;stroke-linejoin:round;stroke-miterlimit:4;stroke-dasharray:none;stroke-dashoffset:4.19999981;stroke-opacity:1;marker:none;enable-background:accumulate" id="rect4945" width="76.2" height="50.8" x="25.173" y="101.397"/><rect id="rect4947" width="55.033" height="12.7" x="25.173" y="103.514" style="color:#000;display:inline;overflow:visible;visibility:visible;opacity:1;vector-effect:none;fill:#eee;fill-opacity:1;fill-rule:nonzero;stroke:none;stroke-width:.02645833;stroke-linecap:butt;stroke-linejoin:round;stroke-miterlimit:4;stroke-dasharray:none;stroke-dashoffset:4.19999981;stroke-opacity:1;marker:none;enable-background:accumulate"/><rect id="rect4950" width="76.2" height="16.933" x="25.173" y="84.464" style="color:#000;display:inline;overflow:visible;visibility:visible;opacity:1;vector-effect:none;fill:#424242;fill-opacity:1;fill-rule:nonzero;stroke:none;stroke-width:.02340641;stroke-linecap:butt;stroke-linejoin:round;stroke-miterlimit:4;stroke-dasharray:none;stroke-dashoffset:4.19999981;stroke-opacity:1;marker:none;enable-background:accumulate"/><text id="text4954" x="29.095" y="94.536" xml:space="preserve" style="font-style:normal;font-variant:normal;font-weight:400;font-stretch:normal;font-size:10.58329105px;line-height:125%;font-family:Raleway;-inkscape-font-specification:'Raleway, Normal';font-variant-ligatures:normal;font-variant-caps:normal;font-variant-numeric:normal;font-feature-settings:normal;text-align:start;letter-spacing:0;word-spacing:0;writing-mode:lr-tb;text-anchor:start;opacity:1;fill:#fafafa;fill-opacity:1;stroke:none;stroke-width:.26458228px;stroke-linecap:butt;stroke-linejoin:miter;stroke-opacity:1"><tspan style="font-style:normal;font-variant:normal;font-weight:400;font-stretch:normal;font-size:4.93888855px;font-family:Roboto;-inkscape-font-specification:Roboto;fill:#fafafa;fill-opacity:1;stroke-width:.26458228px" id="tspan4952" x="29.095" y="94.536">Open from</tspan></text><rect id="rect4959" width="25.4" height="16.933" x="75.973" y="84.464" style="color:#000;display:inline;overflow:visible;visibility:visible;opacity:1;vector-effect:none;fill:#212121;fill-opacity:1;fill-rule:nonzero;stroke:none;stroke-width:.02645833;stroke-linecap:butt;stroke-linejoin:round;stroke-miterlimit:4;stroke-dasharray:none;stroke-dashoffset:4.19999981;stroke-opacity:1;marker:none;enable-background:accumulate"/><path id="path4961" d="m 96.081557,90.549215 c 0,-0.43839 -0.35536,-0.79375 -0.79375,-0.79375 -0.43839,0 -0.79375,0.35536 -0.79375,0.79375 0,0.43838 0.35536,0.79375 0.79375,0.79375 0.43839,0 0.79375,-0.35537 0.79375,-0.79375 z m 0,2.38125 c 0,-0.43839 -0.35536,-0.79375 -0.79375,-0.79375 -0.43839,0 -0.79375,0.35536 -0.79375,0.79375 0,0.43838 0.35536,0.79375 0.79375,0.79375 0.43839,0 0.79375,-0.35537 0.79375,-0.79375 z m 0,2.38125 c 0,-0.43839 -0.35536,-0.79375 -0.79375,-0.79375 -0.43839,0 -0.79375,0.35536 -0.79375,0.79375 0,0.43838 0.35536,0.79375 0.79375,0.79375 0.43839,0 0.79375,-0.35537 0.79375,-0.79375 z" style="color:#000;display:inline;overflow:visible;visibility:visible;fill:#e0e0e0;fill-opacity:1;fill-rule:nonzero;stroke:none;stroke-width:.1984375;marker:none;enable-background:accumulate"/><path style="fill:#424242;fill-opacity:1;stroke-width:.26458332" id="path4963" d="m 32.049797,107.74716 c -1.4605,0 -2.64324,1.18533 -2.64324,2.64583 0,1.4605 1.18274,2.64584 2.64324,2.64584 1.46315,0 2.64843,-1.18534 2.64843,-2.64584 0,-1.4605 -1.18528,-2.64583 -2.64843,-2.64583 z m 0.003,0.52917 c 1.16946,0 2.11667,0.9472 2.11667,2.11666 0,1.16946 -0.94721,2.11667 -2.11667,2.11667 -1.16946,0 -2.11667,-0.94721 -2.11667,-2.11667 0,-1.16946 0.94721,-2.11666 2.11667,-2.11666 z m -0.26458,0.79375 v 1.5875 l 1.38906,0.83354 0.19843,-0.32557 -1.19062,-0.70641 v -1.38906 z"/><text style="font-style:normal;font-variant:normal;font-weight:400;font-stretch:normal;font-size:10.58329105px;line-height:125%;font-family:Raleway;-inkscape-font-specification:'Raleway, Normal';font-variant-ligatures:normal;font-variant-caps:normal;font-variant-numeric:normal;font-feature-settings:normal;text-align:start;letter-spacing:0;word-spacing:0;writing-mode:lr-tb;text-anchor:start;opacity:1;fill:#424242;fill-opacity:1;stroke:none;stroke-width:.26458228px;stroke-linecap:butt;stroke-linejoin:miter;stroke-opacity:1" id="text4967" x="39.678" y="112.179" xml:space="preserve"><tspan id="tspan4965" x="39.678" y="112.179" style="font-style:normal;font-variant:normal;font-weight:400;font-stretch:normal;font-size:4.23333311px;font-family:Roboto;-inkscape-font-specification:Roboto;fill:#424242;fill-opacity:1;stroke-width:.26458228px">Recent</tspan></text><path id="path4-20" d="m 33.639887,141.08477 h -2.11666 l -1.58221,1.5875 -0.005,3.175 c 0,0.29104 0.23812,0.52916 0.52917,0.52916 h 3.175 c 0.29104,0 0.52916,-0.23812 0.52916,-0.52916 v -4.23334 c 0,-0.29104 -0.23812,-0.52916 -0.52916,-0.52916 z m -1.5875,1.5875 h -0.52916 v -1.05834 h 0.52916 z m 0.79375,0 h -0.52916 v -1.05834 h 0.52916 z m 0.79375,0 h -0.52916 v -1.05834 h 0.52916 z" style="fill:#424242;fill-opacity:1;stroke-width:.26458332"/><path style="color:#000;display:inline;overflow:visible;visibility:visible;opacity:1;vector-effect:none;fill:#424242;fill-opacity:1;fill-rule:nonzero;stroke:none;stroke-width:.02645833;stroke-linecap:butt;stroke-linejoin:round;stroke-miterlimit:4;stroke-dasharray:none;stroke-dashoffset:4.19999981;stroke-opacity:1;marker:none;enable-background:accumulate" id="rect4854" d="m 30.464887,124.15143 c -0.29313,0 -0.52916,0.23551 -0.52916,0.52864 v 4.23386 c 0,0.29313 0.23603,0.52917 0.52916,0.52917 h 3.175 c 0.29314,0 0.52917,-0.23604 0.52917,-0.52917 v -4.23386 c 0,-0.29313 -0.23603,-0.52864 -0.52917,-0.52864 z m 0,0.52917 h 3.175 v 4.23333 h -3.175 z m 1.5875,0.52917 a 1.0583306,1.0583172 0 0 0 -1.05833,1.05833 1.0583306,1.0583172 0 0 0 1.05833,1.0578 1.0583306,1.0583172 0 0 0 1.05834,-1.0578 1.0583306,1.0583172 0 0 0 -1.05834,-1.05833 z m 0,0.79375 a 0.26458333,0.26458333 0 0 1 0.26459,0.26458 0.26458333,0.26458333 0 0 1 -0.26459,0.26458 0.26458333,0.26458333 0 0 1 -0.26458,-0.26458 0.26458333,0.26458333 0 0 1 0.26458,-0.26458 z m -1.05833,1.32238 v 1.05834 h 1.05833 z"/><text id="text4983" x="39.678" y="125.568" xml:space="preserve" style="font-style:normal;font-variant:normal;font-weight:400;font-stretch:normal;font-size:10.58329105px;line-height:50%;font-family:Raleway;-inkscape-font-specification:'Raleway, Normal';font-variant-ligatures:normal;font-variant-caps:normal;font-variant-numeric:normal;font-feature-settings:normal;text-align:start;letter-spacing:0;word-spacing:0;writing-mode:lr-tb;text-anchor:start;opacity:1;fill:#424242;fill-opacity:1;stroke:none;stroke-width:.26458228px;stroke-linecap:butt;stroke-linejoin:miter;stroke-opacity:1"><tspan style="font-style:normal;font-variant:normal;font-weight:400;font-stretch:normal;font-size:4.23333311px;line-height:50%;font-family:Roboto;-inkscape-font-specification:Roboto;fill:#424242;fill-opacity:1;stroke-width:.26458228px" id="tspan4981" x="39.678" y="125.568">Internal Storage</tspan><tspan style="font-style:normal;font-variant:normal;font-weight:400;font-stretch:normal;font-size:4.23333311px;line-height:50%;font-family:Roboto;-inkscape-font-specification:Roboto;fill:#424242;fill-opacity:1;stroke-width:.26458228px" id="tspan4987" x="39.678" y="131.208">12.60 GB free</tspan></text><text style="font-style:normal;font-variant:normal;font-weight:400;font-stretch:normal;font-size:10.58329105px;line-height:50%;font-family:Raleway;-inkscape-font-specification:'Raleway, Normal';font-variant-ligatures:normal;font-variant-caps:normal;font-variant-numeric:normal;font-feature-settings:normal;text-align:start;letter-spacing:0;word-spacing:0;writing-mode:lr-tb;text-anchor:start;opacity:1;fill:#424242;fill-opacity:1;stroke:none;stroke-width:.26458228px;stroke-linecap:butt;stroke-linejoin:miter;stroke-opacity:1" id="text4995" x="39.678" y="141.443" xml:space="preserve"><tspan id="tspan4989" x="39.678" y="141.443" style="font-style:normal;font-variant:normal;font-weight:400;font-stretch:normal;font-size:4.23333311px;line-height:50%;font-family:Roboto;-inkscape-font-specification:Roboto;fill:#424242;fill-opacity:1;stroke-width:.26458228px">SD Card</tspan><tspan id="tspan4991" x="39.678" y="147.083" style="font-style:normal;font-variant:normal;font-weight:400;font-stretch:normal;font-size:4.23333311px;line-height:50%;font-family:Roboto;-inkscape-font-specification:Roboto;fill:#424242;fill-opacity:1;stroke-width:.26458228px">6.2 GB free</tspan></text><rect id="rect4956" width="25.4" height="50.8" x="75.973" y="101.397" style="color:#000;display:inline;overflow:visible;visibility:visible;opacity:1;vector-effect:none;fill:#9e9e9e;fill-opacity:1;fill-rule:nonzero;stroke:none;stroke-width:.06414467;stroke-linecap:butt;stroke-linejoin:round;stroke-miterlimit:4;stroke-dasharray:none;stroke-dashoffset:4.19999981;stroke-opacity:1;marker:none;enable-background:accumulate"/><rect style="color:#000;display:inline;overflow:visible;visibility:visible;opacity:1;vector-effect:none;fill:#f80;fill-opacity:1;fill-rule:nonzero;stroke:none;stroke-width:.0339613;stroke-linecap:butt;stroke-linejoin:round;stroke-miterlimit:4;stroke-dasharray:none;stroke-dashoffset:4.19999981;stroke-opacity:1;marker:none;enable-background:accumulate" id="rect4997" width="77.258" height="68.792" x="107.194" y="83.935"/><rect id="rect4999" width="76.2" height="50.8" x="107.723" y="101.397" style="color:#000;display:inline;overflow:visible;visibility:visible;opacity:1;vector-effect:none;fill:#fafafa;fill-opacity:1;fill-rule:nonzero;stroke:none;stroke-width:.04054108;stroke-linecap:butt;stroke-linejoin:round;stroke-miterlimit:4;stroke-dasharray:none;stroke-dashoffset:4.19999981;stroke-opacity:1;marker:none;enable-background:accumulate"/><rect style="color:#000;display:inline;overflow:visible;visibility:visible;opacity:1;vector-effect:none;fill:#424242;fill-opacity:1;fill-rule:nonzero;stroke:none;stroke-width:.02340641;stroke-linecap:butt;stroke-linejoin:round;stroke-miterlimit:4;stroke-dasharray:none;stroke-dashoffset:4.19999981;stroke-opacity:1;marker:none;enable-background:accumulate" id="rect5003" width="76.2" height="16.933" x="107.723" y="84.464"/><path style="color:#000;display:inline;overflow:visible;visibility:visible;fill:#e0e0e0;fill-opacity:1;fill-rule:nonzero;stroke:none;stroke-width:.1984375;marker:none;enable-background:accumulate" id="path5011" d="m 178.63157,90.549214 c 0,-0.43839 -0.35537,-0.79375 -0.79375,-0.79375 -0.43839,0 -0.79375,0.35536 -0.79375,0.79375 0,0.43838 0.35536,0.79375 0.79375,0.79375 0.43838,0 0.79375,-0.35537 0.79375,-0.79375 z m 0,2.38125 c 0,-0.43839 -0.35537,-0.79375 -0.79375,-0.79375 -0.43839,0 -0.79375,0.35536 -0.79375,0.79375 0,0.43838 0.35536,0.79375 0.79375,0.79375 0.43838,0 0.79375,-0.35537 0.79375,-0.79375 z m 0,2.38125 c 0,-0.43839 -0.35537,-0.79375 -0.79375,-0.79375 -0.43839,0 -0.79375,0.35536 -0.79375,0.79375 0,0.43838 0.35536,0.79375 0.79375,0.79375 0.43838,0 0.79375,-0.35537 0.79375,-0.79375 z"/><text id="text5017" x="122.228" y="109.338" xml:space="preserve" style="font-style:normal;font-variant:normal;font-weight:400;font-stretch:normal;font-size:10.58329105px;line-height:125%;font-family:Raleway;-inkscape-font-specification:'Raleway, Normal';font-variant-ligatures:normal;font-variant-caps:normal;font-variant-numeric:normal;font-feature-settings:normal;text-align:start;letter-spacing:0;word-spacing:0;writing-mode:lr-tb;text-anchor:start;opacity:1;fill:#424242;fill-opacity:1;stroke:none;stroke-width:.26458228px;stroke-linecap:butt;stroke-linejoin:miter;stroke-opacity:1"><tspan style="font-style:normal;font-variant:normal;font-weight:400;font-stretch:normal;font-size:4.23333311px;font-family:Roboto;-inkscape-font-specification:Roboto;fill:#424242;fill-opacity:1;stroke-width:.26458228px" id="tspan5015" x="122.228" y="109.338">Android</tspan></text><text style="font-style:normal;font-variant:normal;font-weight:400;font-stretch:normal;font-size:10.58329105px;line-height:50%;font-family:Raleway;-inkscape-font-specification:'Raleway, Normal';font-variant-ligatures:normal;font-variant-caps:normal;font-variant-numeric:normal;font-feature-settings:normal;text-align:start;letter-spacing:0;word-spacing:0;writing-mode:lr-tb;text-anchor:start;opacity:1;fill:#424242;fill-opacity:1;stroke:none;stroke-width:.26458228px;stroke-linecap:butt;stroke-linejoin:miter;stroke-opacity:1" id="text5035" x="122.228" y="122.038" xml:space="preserve"><tspan id="tspan5031" x="122.228" y="122.038" style="font-style:normal;font-variant:normal;font-weight:400;font-stretch:normal;font-size:4.23333311px;line-height:50%;font-family:Roboto;-inkscape-font-specification:Roboto;fill:#424242;fill-opacity:1;stroke-width:.26458228px">Movies</tspan></text><text style="font-style:normal;font-variant:normal;font-weight:400;font-stretch:normal;font-size:10.58329105px;line-height:125%;font-family:Raleway;-inkscape-font-specification:'Raleway, Normal';font-variant-ligatures:normal;font-variant-caps:normal;font-variant-numeric:normal;font-feature-settings:normal;text-align:start;letter-spacing:0;word-spacing:0;writing-mode:lr-tb;text-anchor:start;opacity:1;fill:#fafafa;fill-opacity:1;stroke:none;stroke-width:.26458228px;stroke-linecap:butt;stroke-linejoin:miter;stroke-opacity:1" id="text5050" x="118.524" y="94.66" xml:space="preserve"><tspan id="tspan5048" x="118.524" y="94.66" style="font-style:normal;font-variant:normal;font-weight:400;font-stretch:normal;font-size:4.93888855px;font-family:Roboto;-inkscape-font-specification:Roboto;fill:#fafafa;fill-opacity:1;stroke-width:.26458228px">SD Card</tspan></text><path style="fill:#fafafa;fill-opacity:1;stroke-width:.26458332" id="path5052" d="m 111.02087,94.518094 h 4.7625 v -0.52917 h -4.7625 z m 0,-1.32292 h 4.7625 v -0.52917 h -4.7625 z m 0,-1.85208 v 0.52916 h 4.7625 v -0.52916 z"/><path id="path2-8" d="m 166.9899,94.517964 h 1.5875 v -0.52917 h -1.5875 z m 0,-3.175 v 0.52916 h 4.7625 v -0.52916 z m 0,1.85208 h 3.175 v -0.52917 h -3.175 z" style="fill:#e0e0e0;fill-opacity:1;stroke-width:.26458332"/><path id="path2-6" d="m 159.58157,90.813794 h -1.5875 c -0.29105,0 -0.52652,0.23812 -0.52652,0.52917 l -0.003,3.175 c 0,0.29104 0.23812,0.52916 0.52917,0.52916 h 4.23368 c 0.29104,0 0.52917,-0.23812 0.52917,-0.52916 v -2.64584 c 0,-0.29104 -0.23813,-0.52916 -0.52917,-0.52916 h -2.11667 z" style="fill:#e0e0e0;fill-opacity:1;stroke-width:.26458332"/><path style="fill:#424242;fill-opacity:1;stroke-width:.26458332" id="path5069" d="m 114.07323,105.63066 h -1.5875 c -0.29104,0 -0.52652,0.23812 -0.52652,0.52916 l -0.003,3.175 c 0,0.29104 0.23813,0.52917 0.52917,0.52917 h 4.23333 c 0.29104,0 0.52917,-0.23813 0.52917,-0.52917 v -2.64583 c 0,-0.29104 -0.23813,-0.52917 -0.52917,-0.52917 H 114.602 Z"/><path id="path5072" d="m 114.07323,118.33066 h -1.5875 c -0.29104,0 -0.52652,0.23812 -0.52652,0.52917 l -0.003,3.175 c 0,0.29104 0.23813,0.52916 0.52917,0.52916 h 4.23333 c 0.29104,0 0.52917,-0.23812 0.52917,-0.52916 v -2.64584 c 0,-0.29104 -0.23813,-0.52916 -0.52917,-0.52916 H 114.602 Z" style="fill:#424242;fill-opacity:1;stroke-width:.26458332"/><text style="font-style:normal;font-variant:normal;font-weight:400;font-stretch:normal;font-size:10.58329105px;line-height:125%;font-family:Raleway;-inkscape-font-specification:'Raleway, Normal';font-variant-ligatures:normal;font-variant-caps:normal;font-variant-numeric:normal;font-feature-settings:normal;text-align:start;letter-spacing:0;word-spacing:0;writing-mode:lr-tb;text-anchor:start;opacity:1;fill:#424242;fill-opacity:1;stroke:none;stroke-width:.26458228px;stroke-linecap:butt;stroke-linejoin:miter;stroke-opacity:1" id="text5076" x="164.204" y="144.792" xml:space="preserve"><tspan id="tspan5074" x="164.204" y="144.792" style="font-style:normal;font-variant:normal;font-weight:400;font-stretch:normal;font-size:4.23333311px;font-family:Roboto;-inkscape-font-specification:Roboto;fill:#424242;fill-opacity:1;stroke-width:.26458228px">Select</tspan></text><rect style="color:#000;display:inline;overflow:visible;visibility:visible;opacity:1;vector-effect:none;fill:none;fill-opacity:1;fill-rule:nonzero;stroke:red;stroke-width:1.05828655;stroke-linecap:butt;stroke-linejoin:miter;stroke-miterlimit:4;stroke-dasharray:none;stroke-dashoffset:4.19999981;stroke-opacity:1;marker:none;enable-background:accumulate" id="rect4689" width="11.642" height="11.642" x="89.731" y="46.893"/><g id="g4726" transform="matrix(0.26458333,0,0,0.26458333,-262.69345,-564.39022)"><circle id="path4700" cx="1354" cy="2272.362" r="22" style="color:#000;display:inline;overflow:visible;visibility:visible;opacity:1;vector-effect:none;fill:#fafafa;fill-opacity:1;fill-rule:nonzero;stroke:#f80;stroke-width:4;stroke-linecap:butt;stroke-linejoin:miter;stroke-miterlimit:4;stroke-dasharray:none;stroke-dashoffset:4.19999981;stroke-opacity:1;marker:none;enable-background:accumulate"/><text id="text4696" x="1343.523" y="2285.825" xml:space="preserve" style="font-style:normal;font-variant:normal;font-weight:700;font-stretch:normal;font-size:37.33333206px;line-height:125%;font-family:Roboto;-inkscape-font-specification:'Roboto, Bold';font-variant-ligatures:normal;font-variant-caps:normal;font-variant-numeric:normal;font-feature-settings:normal;text-align:start;letter-spacing:0;word-spacing:0;writing-mode:lr-tb;text-anchor:start;fill:#f80;fill-opacity:1;stroke:none;stroke-width:1px;stroke-linecap:butt;stroke-linejoin:miter;stroke-opacity:1"><tspan id="tspan4694" x="1343.523" y="2285.825">1</tspan></text></g><g id="g4795" transform="matrix(0.26458333,0,0,0.26458333,-269.5726,-564.3902)"><circle style="color:#000;display:inline;overflow:visible;visibility:visible;opacity:1;vector-effect:none;fill:#fafafa;fill-opacity:1;fill-rule:nonzero;stroke:#f80;stroke-width:4;stroke-linecap:butt;stroke-linejoin:miter;stroke-miterlimit:4;stroke-dasharray:none;stroke-dashoffset:4.19999981;stroke-opacity:1;marker:none;enable-background:accumulate" id="circle4706" cx="1674" cy="2272.362" r="22"/><text style="font-style:normal;font-variant:normal;font-weight:700;font-stretch:normal;font-size:37.33333206px;line-height:125%;font-family:Roboto;-inkscape-font-specification:'Roboto, Bold';font-variant-ligatures:normal;font-variant-caps:normal;font-variant-numeric:normal;font-feature-settings:normal;text-align:start;letter-spacing:0;word-spacing:0;writing-mode:lr-tb;text-anchor:start;fill:#f80;fill-opacity:1;stroke:none;stroke-width:1px;stroke-linecap:butt;stroke-linejoin:miter;stroke-opacity:1" id="text4704" x="1663.347" y="2285.825" xml:space="preserve"><tspan id="tspan4702" x="1663.347" y="2285.825">2</tspan></text></g><rect id="rect4708" width="37.042" height="11.642" x="142.119" y="46.893" style="color:#000;display:inline;overflow:visible;visibility:visible;opacity:1;vector-effect:none;fill:none;fill-opacity:1;fill-rule:nonzero;stroke:red;stroke-width:1.05834126;stroke-linecap:butt;stroke-linejoin:miter;stroke-miterlimit:4;stroke-dasharray:none;stroke-dashoffset:4.19999981;stroke-opacity:1;marker:none;enable-background:accumulate"/><g id="g4761" transform="matrix(0.26458333,0,0,0.26458333,-355.29762,-509.88601)"><circle id="circle4752" cx="1674" cy="2468.362" r="22" style="color:#000;display:inline;overflow:visible;visibility:visible;opacity:1;vector-effect:none;fill:#fafafa;fill-opacity:1;fill-rule:nonzero;stroke:#f80;stroke-width:4;stroke-linecap:butt;stroke-linejoin:miter;stroke-miterlimit:4;stroke-dasharray:none;stroke-dashoffset:4.19999981;stroke-opacity:1;marker:none;enable-background:accumulate"/><text id="text4756" x="1663.347" y="2481.824" xml:space="preserve" style="font-style:normal;font-variant:normal;font-weight:700;font-stretch:normal;font-size:37.33333206px;line-height:125%;font-family:Roboto;-inkscape-font-specification:'Roboto, Bold';font-variant-ligatures:normal;font-variant-caps:normal;font-variant-numeric:normal;font-feature-settings:normal;text-align:start;letter-spacing:0;word-spacing:0;writing-mode:lr-tb;text-anchor:start;fill:#f80;fill-opacity:1;stroke:none;stroke-width:1px;stroke-linecap:butt;stroke-linejoin:miter;stroke-opacity:1"><tspan id="tspan4754" x="1663.347" y="2481.824">3</tspan></text></g><g id="g4790" transform="matrix(0.26458333,0,0,0.26458333,-264.28093,-574.49491)"><circle style="color:#000;display:inline;overflow:visible;visibility:visible;opacity:1;vector-effect:none;fill:#fafafa;fill-opacity:1;fill-rule:nonzero;stroke:#f80;stroke-width:4;stroke-linecap:butt;stroke-linejoin:miter;stroke-miterlimit:4;stroke-dasharray:none;stroke-dashoffset:4.19999981;stroke-opacity:1;marker:none;enable-background:accumulate" id="circle4763" cx="1560.075" cy="2712.553" r="22"/><text style="font-style:normal;font-variant:normal;font-weight:700;font-stretch:normal;font-size:37.33333206px;line-height:125%;font-family:Roboto;-inkscape-font-specification:'Roboto, Bold';font-variant-ligatures:normal;font-variant-caps:normal;font-variant-numeric:normal;font-feature-settings:normal;text-align:start;letter-spacing:0;word-spacing:0;writing-mode:lr-tb;text-anchor:start;fill:#f80;fill-opacity:1;stroke:none;stroke-width:1px;stroke-linecap:butt;stroke-linejoin:miter;stroke-opacity:1" id="text4767" x="1549.347" y="2725.824" xml:space="preserve"><tspan id="tspan4765" x="1549.347" y="2725.824">4</tspan></text></g><rect style="color:#000;display:inline;overflow:visible;visibility:visible;opacity:1;vector-effect:none;fill:none;fill-opacity:1;fill-rule:nonzero;stroke:red;stroke-width:1.05838799;stroke-linecap:butt;stroke-linejoin:miter;stroke-miterlimit:4;stroke-dasharray:none;stroke-dashoffset:4.19999981;stroke-opacity:1;marker:none;enable-background:accumulate" id="rect4771" width="49.742" height="11.642" x="27.819" y="137.381"/><rect style="color:#000;display:inline;overflow:visible;visibility:visible;opacity:1;vector-effect:none;fill:none;fill-opacity:1;fill-rule:nonzero;stroke:red;stroke-width:1.05827999;stroke-linecap:butt;stroke-linejoin:miter;stroke-miterlimit:4;stroke-dasharray:none;stroke-dashoffset:4.19999981;stroke-opacity:1;marker:none;enable-background:accumulate" id="rect4774" width="23.283" height="11.642" x="158.523" y="137.381"/><text id="text915" x="122.228" y="134.738" xml:space="preserve" style="font-style:normal;font-variant:normal;font-weight:400;font-stretch:normal;font-size:10.58329105px;line-height:50%;font-family:Raleway;-inkscape-font-specification:'Raleway, Normal';font-variant-ligatures:normal;font-variant-caps:normal;font-variant-numeric:normal;font-feature-settings:normal;text-align:start;letter-spacing:0;word-spacing:0;writing-mode:lr-tb;text-anchor:start;opacity:1;fill:#424242;fill-opacity:1;stroke:none;stroke-width:.26458228px;stroke-linecap:butt;stroke-linejoin:miter;stroke-opacity:1"><tspan style="font-style:normal;font-variant:normal;font-weight:400;font-stretch:normal;font-size:4.23333311px;line-height:50%;font-family:Roboto;-inkscape-font-specification:Roboto;fill:#424242;fill-opacity:1;stroke-width:.26458228px" id="tspan911" x="122.228" y="134.738">Music</tspan></text><path style="fill:#424242;fill-opacity:1;stroke-width:.26458332" id="path917" d="m 114.07323,131.03065 h -1.5875 c -0.29104,0 -0.52652,0.23812 -0.52652,0.52917 l -0.003,3.175 c 0,0.29104 0.23813,0.52916 0.52917,0.52916 h 4.23333 c 0.29104,0 0.52917,-0.23812 0.52917,-0.52916 v -2.64584 c 0,-0.29104 -0.23813,-0.52916 -0.52917,-0.52916 H 114.602 Z"/></g></svg>